<?xml version="1.0" encoding="UTF-8"?><svg xmlns="http://www.w3.org/2000/svg" xmlns:xlink="http://www.w3.org/1999/xlink" width="375" zoomAndPan="magnify" viewBox="0 0 375 374.999991" height="374.999991" preserveAspectRatio="xMidYMid meet" version="1.0"><defs><clipPath id="clip-0"><path d="M 23.230469 65.941406 L 351.730469 65.941406 L 351.730469 308.941406 L 23.230469 308.941406 Z M 23.230469 65.941406 " clip-rule="nonzero"/></clipPath></defs><g clip-path="url(#clip-0)"><path fill="rgb(83.139038%, 61.569214%, 25.099182%)" d="M 323.976562 150.992188 C 325.464844 149.335938 326.792969 147.5625 327.957031 145.664062 C 329.117188 143.769531 330.101562 141.78125 330.902344 139.703125 C 331.699219 137.628906 332.304688 135.496094 332.714844 133.308594 C 333.125 131.121094 333.332031 128.914062 333.335938 126.691406 L 333.335938 114.539062 L 184.441406 114.539062 L 184.441406 112.355469 C 184.34375 110.828125 184.175781 109.308594 183.9375 107.796875 C 183.703125 106.285156 183.394531 104.789062 183.019531 103.304688 C 182.644531 101.820312 182.203125 100.359375 181.695312 98.917969 C 181.183594 97.472656 180.609375 96.058594 179.972656 94.667969 C 179.332031 93.277344 178.628906 91.921875 177.867188 90.59375 C 177.101562 89.269531 176.277344 87.980469 175.398438 86.730469 C 174.515625 85.480469 173.578125 84.273438 172.585938 83.109375 C 171.589844 81.945312 170.546875 80.832031 169.449219 79.761719 C 168.355469 78.695312 167.214844 77.679688 166.023438 76.714844 C 164.835938 75.75 163.605469 74.84375 162.332031 73.992188 C 161.0625 73.144531 159.753906 72.351562 158.40625 71.621094 C 157.0625 70.890625 155.6875 70.226562 154.28125 69.621094 C 152.875 69.015625 151.445312 68.476562 149.988281 68.003906 C 148.535156 67.53125 147.0625 67.128906 145.566406 66.789062 C 144.074219 66.453125 142.570312 66.183594 141.054688 65.984375 C 139.535156 65.785156 138.011719 65.65625 136.484375 65.59375 C 134.953125 65.535156 133.425781 65.546875 131.898438 65.625 C 130.367188 65.707031 128.847656 65.855469 127.332031 66.078125 C 125.820312 66.296875 124.316406 66.585938 122.828125 66.941406 C 121.34375 67.300781 119.875 67.726562 118.425781 68.21875 C 116.976562 68.710938 115.550781 69.269531 114.15625 69.890625 C 112.757812 70.515625 111.390625 71.203125 110.054688 71.949219 C 108.722656 72.699219 107.425781 73.507812 106.164062 74.375 C 104.902344 75.242188 103.683594 76.164062 102.507812 77.144531 C 101.332031 78.125 100.207031 79.15625 99.125 80.238281 C 98.042969 81.320312 97.015625 82.449219 96.039062 83.628906 C 95.058594 84.804688 94.140625 86.023438 93.273438 87.285156 C 92.410156 88.546875 91.601562 89.847656 90.855469 91.183594 C 90.109375 92.519531 89.425781 93.886719 88.808594 95.285156 C 88.1875 96.683594 87.632812 98.105469 87.140625 99.554688 C 86.652344 101.003906 86.230469 102.472656 85.875 103.960938 C 85.519531 105.449219 85.234375 106.953125 85.019531 108.464844 L 29.472656 108.464844 C 29.070312 108.464844 28.675781 108.503906 28.285156 108.582031 C 27.894531 108.660156 27.515625 108.773438 27.144531 108.929688 C 26.777344 109.082031 26.425781 109.269531 26.09375 109.488281 C 25.761719 109.710938 25.457031 109.960938 25.175781 110.246094 C 24.890625 110.527344 24.640625 110.832031 24.417969 111.164062 C 24.195312 111.496094 24.007812 111.847656 23.855469 112.214844 C 23.703125 112.585938 23.589844 112.964844 23.511719 113.355469 C 23.433594 113.746094 23.394531 114.140625 23.394531 114.539062 C 23.394531 114.941406 23.433594 115.335938 23.511719 115.726562 C 23.589844 116.117188 23.703125 116.496094 23.855469 116.867188 C 24.007812 117.234375 24.195312 117.585938 24.417969 117.914062 C 24.640625 118.246094 24.890625 118.554688 25.175781 118.835938 C 25.457031 119.117188 25.761719 119.371094 26.09375 119.589844 C 26.425781 119.8125 26.777344 120 27.144531 120.152344 C 27.515625 120.304688 27.894531 120.421875 28.285156 120.5 C 28.675781 120.578125 29.070312 120.617188 29.472656 120.617188 L 68.304688 120.617188 L 137.648438 254.875 C 138.5 256.527344 139.402344 258.15625 140.347656 259.761719 C 141.292969 261.363281 142.285156 262.941406 143.320312 264.488281 C 144.355469 266.035156 145.429688 267.554688 146.550781 269.042969 C 147.667969 270.53125 148.828125 271.988281 150.027344 273.410156 C 151.230469 274.835938 152.46875 276.222656 153.746094 277.578125 C 155.027344 278.933594 156.339844 280.25 157.691406 281.53125 C 159.042969 282.8125 160.429688 284.054688 161.851562 285.257812 C 163.273438 286.460938 164.726562 287.625 166.214844 288.746094 C 167.699219 289.867188 169.21875 290.945312 170.765625 291.984375 C 172.3125 293.023438 173.886719 294.015625 175.488281 294.964844 C 177.089844 295.914062 178.71875 296.816406 180.371094 297.675781 C 182.023438 298.535156 183.699219 299.347656 185.398438 300.109375 C 187.09375 300.875 188.8125 301.59375 190.550781 302.261719 C 192.289062 302.929688 194.046875 303.550781 195.820312 304.121094 C 197.59375 304.691406 199.378906 305.210938 201.183594 305.683594 C 202.984375 306.152344 204.796875 306.574219 206.625 306.945312 C 208.449219 307.3125 210.285156 307.632812 212.125 307.898438 C 213.96875 308.164062 215.820312 308.378906 217.675781 308.542969 C 219.53125 308.707031 221.390625 308.820312 223.25 308.878906 C 225.113281 308.9375 226.972656 308.945312 228.835938 308.902344 C 230.699219 308.859375 232.558594 308.761719 234.414062 308.613281 C 236.269531 308.464844 238.121094 308.265625 239.96875 308.015625 C 241.8125 307.761719 243.652344 307.460938 245.480469 307.105469 C 247.308594 306.75 249.125 306.347656 250.929688 305.890625 C 252.738281 305.433594 254.527344 304.929688 256.304688 304.375 C 258.085938 303.816406 259.84375 303.210938 261.589844 302.558594 C 263.332031 301.902344 265.058594 301.203125 266.761719 300.453125 C 268.464844 299.699219 270.148438 298.902344 271.808594 298.058594 C 273.46875 297.214844 275.105469 296.324219 276.714844 295.386719 C 278.324219 294.453125 279.90625 293.472656 281.460938 292.449219 C 283.015625 291.421875 284.542969 290.355469 286.039062 289.246094 C 287.535156 288.136719 289 286.984375 290.429688 285.792969 L 299.058594 278.566406 L 333.335938 278.566406 C 333.734375 278.566406 334.128906 278.527344 334.519531 278.449219 C 334.914062 278.371094 335.292969 278.253906 335.660156 278.101562 C 336.03125 277.949219 336.378906 277.761719 336.710938 277.542969 C 337.042969 277.320312 337.351562 277.066406 337.632812 276.785156 C 337.914062 276.503906 338.167969 276.199219 338.386719 275.867188 C 338.609375 275.535156 338.796875 275.183594 338.949219 274.816406 C 339.101562 274.445312 339.21875 274.066406 339.296875 273.675781 C 339.375 273.285156 339.414062 272.890625 339.414062 272.492188 C 339.414062 272.089844 339.375 271.695312 339.296875 271.304688 C 339.21875 270.914062 339.101562 270.535156 338.949219 270.164062 C 338.796875 269.796875 338.609375 269.445312 338.386719 269.117188 C 338.167969 268.785156 337.914062 268.476562 337.632812 268.195312 C 337.351562 267.914062 337.042969 267.660156 336.710938 267.4375 C 336.378906 267.21875 336.03125 267.03125 335.660156 266.878906 C 335.292969 266.726562 334.914062 266.609375 334.519531 266.53125 C 334.128906 266.453125 333.734375 266.414062 333.335938 266.414062 L 249.953125 266.414062 C 247.472656 266.402344 245 266.214844 242.542969 265.851562 C 240.085938 265.488281 237.667969 264.957031 235.285156 264.253906 C 232.902344 263.550781 230.582031 262.683594 228.324219 261.652344 C 226.0625 260.625 223.886719 259.4375 221.796875 258.101562 C 219.703125 256.765625 217.714844 255.285156 215.832031 253.667969 C 213.949219 252.050781 212.1875 250.308594 210.546875 248.445312 C 208.910156 246.578125 207.410156 244.605469 206.050781 242.527344 C 204.691406 240.449219 203.484375 238.289062 202.429688 236.039062 L 302.949219 236.039062 C 304.144531 236.039062 305.335938 235.980469 306.523438 235.863281 C 307.710938 235.75 308.890625 235.574219 310.0625 235.339844 C 311.234375 235.105469 312.390625 234.816406 313.535156 234.472656 C 314.675781 234.125 315.800781 233.722656 316.902344 233.265625 C 318.007812 232.808594 319.085938 232.300781 320.136719 231.738281 C 321.191406 231.175781 322.214844 230.5625 323.207031 229.898438 C 324.199219 229.234375 325.15625 228.523438 326.082031 227.765625 C 327.003906 227.007812 327.886719 226.207031 328.734375 225.363281 C 329.578125 224.519531 330.378906 223.636719 331.136719 222.714844 C 331.894531 221.792969 332.605469 220.832031 333.265625 219.839844 C 333.929688 218.847656 334.542969 217.824219 335.105469 216.773438 C 335.667969 215.71875 336.179688 214.640625 336.636719 213.539062 C 337.09375 212.4375 337.496094 211.3125 337.84375 210.171875 C 338.1875 209.027344 338.480469 207.871094 338.710938 206.703125 C 338.945312 205.53125 339.121094 204.351562 339.238281 203.164062 C 339.355469 201.976562 339.414062 200.785156 339.414062 199.589844 L 339.414062 190.234375 C 341.320312 188.53125 343.027344 186.644531 344.539062 184.578125 C 346.050781 182.515625 347.328125 180.316406 348.375 177.980469 C 349.421875 175.648438 350.214844 173.230469 350.753906 170.730469 C 351.289062 168.226562 351.5625 165.699219 351.566406 163.140625 L 351.566406 150.992188 Z M 321.179688 126.691406 C 321.179688 127.488281 321.140625 128.28125 321.0625 129.074219 C 320.984375 129.863281 320.867188 130.652344 320.714844 131.429688 C 320.558594 132.210938 320.363281 132.984375 320.132812 133.746094 C 319.902344 134.507812 319.636719 135.253906 319.332031 135.988281 C 319.027344 136.726562 318.683594 137.445312 318.308594 138.144531 C 317.933594 138.847656 317.527344 139.527344 317.082031 140.191406 C 316.640625 140.851562 316.167969 141.492188 315.664062 142.105469 C 315.15625 142.722656 314.625 143.308594 314.0625 143.875 C 313.496094 144.4375 312.910156 144.96875 312.292969 145.476562 C 311.675781 145.980469 311.039062 146.453125 310.375 146.894531 C 309.714844 147.335938 309.03125 147.746094 308.332031 148.121094 C 307.628906 148.496094 306.910156 148.835938 306.175781 149.140625 C 305.4375 149.445312 304.691406 149.714844 303.929688 149.945312 C 303.167969 150.175781 302.394531 150.367188 301.613281 150.523438 C 300.832031 150.679688 300.046875 150.796875 299.253906 150.875 C 298.460938 150.953125 297.667969 150.992188 296.871094 150.992188 L 187.054688 150.992188 L 185.351562 126.691406 Z M 134.425781 78.089844 C 135.605469 78.09375 136.785156 78.152344 137.960938 78.269531 C 139.136719 78.382812 140.304688 78.550781 141.464844 78.773438 C 142.625 78.996094 143.773438 79.273438 144.90625 79.605469 C 146.042969 79.933594 147.160156 80.316406 148.257812 80.75 C 149.355469 81.183594 150.433594 81.667969 151.484375 82.203125 C 152.539062 82.738281 153.566406 83.320312 154.566406 83.953125 C 155.5625 84.582031 156.53125 85.257812 157.46875 85.976562 C 158.402344 86.699219 159.304688 87.460938 160.167969 88.265625 C 161.035156 89.070312 161.859375 89.914062 162.644531 90.796875 C 163.429688 91.675781 164.175781 92.59375 164.875 93.542969 C 165.574219 94.496094 166.230469 95.476562 166.839844 96.488281 C 167.449219 97.5 168.007812 98.539062 168.519531 99.605469 C 169.03125 100.667969 169.496094 101.753906 169.90625 102.859375 C 170.316406 103.96875 170.671875 105.09375 170.980469 106.234375 C 171.285156 107.375 171.539062 108.527344 171.734375 109.691406 C 171.933594 110.855469 172.078125 112.027344 172.164062 113.203125 L 174.902344 150.992188 L 135.277344 150.992188 L 96.6875 112.414062 L 96.6875 110.59375 C 96.851562 109.472656 97.066406 108.363281 97.332031 107.261719 C 97.597656 106.164062 97.910156 105.078125 98.273438 104.003906 C 98.632812 102.933594 99.042969 101.878906 99.5 100.84375 C 99.953125 99.808594 100.457031 98.792969 101 97.804688 C 101.546875 96.8125 102.136719 95.847656 102.769531 94.910156 C 103.402344 93.972656 104.074219 93.0625 104.785156 92.183594 C 105.5 91.304688 106.25 90.460938 107.039062 89.648438 C 107.828125 88.835938 108.648438 88.0625 109.507812 87.324219 C 110.363281 86.585938 111.253906 85.886719 112.171875 85.226562 C 113.09375 84.566406 114.039062 83.949219 115.015625 83.375 C 115.988281 82.800781 116.988281 82.269531 118.011719 81.785156 C 119.03125 81.296875 120.074219 80.859375 121.136719 80.464844 C 122.195312 80.070312 123.273438 79.726562 124.367188 79.429688 C 125.457031 79.132812 126.558594 78.882812 127.675781 78.683594 C 128.789062 78.484375 129.910156 78.335938 131.035156 78.238281 C 132.164062 78.136719 133.292969 78.089844 134.425781 78.089844 Z M 249.894531 278.566406 L 279.855469 278.566406 C 278.589844 279.542969 277.296875 280.484375 275.976562 281.390625 C 274.65625 282.296875 273.316406 283.167969 271.949219 284 C 270.582031 284.832031 269.195312 285.625 267.785156 286.382812 C 266.375 287.140625 264.945312 287.859375 263.496094 288.535156 C 262.046875 289.214844 260.578125 289.851562 259.09375 290.453125 C 257.609375 291.050781 256.113281 291.605469 254.597656 292.121094 C 253.082031 292.640625 251.554688 293.113281 250.011719 293.546875 C 248.472656 293.976562 246.921875 294.367188 245.359375 294.714844 C 243.796875 295.0625 242.226562 295.367188 240.648438 295.628906 C 239.070312 295.890625 237.484375 296.109375 235.894531 296.28125 C 234.300781 296.457031 232.707031 296.589844 231.109375 296.675781 C 229.511719 296.761719 227.914062 296.804688 226.3125 296.804688 C 224.710938 296.804688 223.113281 296.761719 221.515625 296.671875 C 219.917969 296.585938 218.324219 296.453125 216.730469 296.277344 C 215.140625 296.105469 213.558594 295.886719 211.976562 295.625 C 210.398438 295.363281 208.828125 295.054688 207.265625 294.707031 C 205.703125 294.359375 204.152344 293.96875 202.613281 293.539062 C 201.074219 293.105469 199.542969 292.628906 198.03125 292.113281 C 196.515625 291.597656 195.015625 291.039062 193.53125 290.441406 C 192.046875 289.839844 190.582031 289.203125 189.132812 288.523438 C 187.683594 287.84375 186.253906 287.125 184.84375 286.371094 C 183.433594 285.613281 182.046875 284.816406 180.679688 283.984375 C 179.316406 283.148438 177.972656 282.28125 176.652344 281.375 C 175.335938 280.464844 174.042969 279.523438 172.777344 278.546875 C 171.507812 277.570312 170.269531 276.558594 169.058594 275.511719 C 167.847656 274.46875 166.667969 273.390625 165.515625 272.277344 C 164.363281 271.167969 163.242188 270.027344 162.152344 268.855469 C 161.0625 267.683594 160.003906 266.484375 158.980469 265.253906 C 157.957031 264.027344 156.964844 262.769531 156.011719 261.484375 C 155.054688 260.203125 154.136719 258.894531 153.253906 257.558594 C 152.371094 256.226562 151.523438 254.867188 150.714844 253.488281 C 149.90625 252.109375 149.136719 250.707031 148.402344 249.285156 L 81.980469 120.617188 L 87.753906 120.617188 L 130.292969 163.140625 L 241.566406 163.140625 C 240.761719 166.460938 239.773438 169.722656 238.597656 172.929688 C 237.425781 176.140625 236.074219 179.269531 234.550781 182.328125 C 233.023438 185.382812 231.332031 188.34375 229.472656 191.210938 C 227.613281 194.078125 225.601562 196.828125 223.429688 199.46875 C 221.261719 202.109375 218.953125 204.617188 216.503906 206.996094 C 214.050781 209.378906 211.472656 211.613281 208.773438 213.703125 C 206.070312 215.792969 203.257812 217.726562 200.339844 219.5 C 197.417969 221.273438 194.410156 222.878906 191.308594 224.316406 L 186.203125 226.382812 L 187.722656 231.605469 C 188.207031 233.28125 188.757812 234.929688 189.375 236.5625 C 189.992188 238.191406 190.671875 239.792969 191.417969 241.367188 C 192.164062 242.941406 192.96875 244.484375 193.839844 245.996094 C 194.710938 247.503906 195.636719 248.976562 196.625 250.414062 C 197.613281 251.847656 198.660156 253.242188 199.757812 254.59375 C 200.859375 255.945312 202.011719 257.25 203.214844 258.507812 C 204.421875 259.765625 205.675781 260.972656 206.976562 262.132812 C 208.28125 263.289062 209.625 264.394531 211.015625 265.445312 C 212.410156 266.492188 213.839844 267.484375 215.308594 268.421875 C 216.78125 269.355469 218.285156 270.230469 219.828125 271.042969 C 221.371094 271.855469 222.941406 272.605469 224.542969 273.292969 C 226.144531 273.980469 227.769531 274.601562 229.421875 275.160156 C 231.074219 275.714844 232.746094 276.207031 234.4375 276.628906 C 236.125 277.050781 237.832031 277.402344 239.550781 277.6875 C 241.269531 277.972656 243 278.191406 244.734375 278.335938 C 246.472656 278.484375 248.210938 278.558594 249.953125 278.566406 Z M 327.257812 199.589844 C 327.257812 200.386719 327.21875 201.179688 327.140625 201.972656 C 327.0625 202.765625 326.945312 203.550781 326.789062 204.332031 C 326.636719 205.113281 326.441406 205.882812 326.210938 206.644531 C 325.980469 207.40625 325.710938 208.15625 325.40625 208.890625 C 325.101562 209.625 324.761719 210.34375 324.386719 211.046875 C 324.011719 211.746094 323.601562 212.429688 323.160156 213.089844 C 322.71875 213.753906 322.246094 214.390625 321.738281 215.007812 C 321.234375 215.621094 320.699219 216.210938 320.136719 216.773438 C 319.574219 217.335938 318.984375 217.871094 318.371094 218.375 C 317.753906 218.878906 317.117188 219.351562 316.453125 219.796875 C 315.792969 220.238281 315.109375 220.644531 314.40625 221.019531 C 313.707031 221.394531 312.988281 221.734375 312.25 222.039062 C 311.515625 222.34375 310.765625 222.613281 310.003906 222.84375 C 309.242188 223.074219 308.472656 223.269531 307.691406 223.421875 C 306.910156 223.578125 306.125 223.695312 305.332031 223.773438 C 304.539062 223.851562 303.746094 223.890625 302.949219 223.890625 L 215.863281 223.890625 C 224.707031 216.960938 232.304688 208.859375 238.652344 199.589844 Z M 315.101562 187.441406 L 245.882812 187.441406 C 249.925781 179.792969 252.578125 171.695312 253.84375 163.140625 L 339.414062 163.140625 C 339.414062 163.9375 339.375 164.730469 339.296875 165.523438 C 339.21875 166.3125 339.101562 167.101562 338.945312 167.882812 C 338.789062 168.660156 338.597656 169.433594 338.367188 170.195312 C 338.132812 170.957031 337.867188 171.703125 337.5625 172.441406 C 337.257812 173.175781 336.917969 173.894531 336.542969 174.59375 C 336.167969 175.296875 335.757812 175.980469 335.316406 176.640625 C 334.875 177.300781 334.398438 177.941406 333.894531 178.554688 C 333.390625 179.171875 332.855469 179.761719 332.292969 180.324219 C 331.730469 180.886719 331.140625 181.417969 330.523438 181.925781 C 329.910156 182.429688 329.269531 182.902344 328.609375 183.34375 C 327.945312 183.789062 327.265625 184.195312 326.5625 184.570312 C 325.859375 184.945312 325.140625 185.285156 324.40625 185.589844 C 323.671875 185.894531 322.921875 186.164062 322.160156 186.394531 C 321.398438 186.625 320.625 186.820312 319.847656 186.972656 C 319.066406 187.128906 318.277344 187.246094 317.484375 187.324219 C 316.695312 187.402344 315.898438 187.441406 315.101562 187.441406 Z M 315.101562 187.441406 " fill-opacity="1" fill-rule="nonzero"/></g><path fill="rgb(83.139038%, 61.569214%, 25.099182%)" d="M 144.941406 111.503906 C 144.941406 112.101562 144.882812 112.695312 144.765625 113.28125 C 144.648438 113.867188 144.476562 114.4375 144.246094 114.992188 C 144.015625 115.542969 143.734375 116.066406 143.402344 116.566406 C 143.070312 117.0625 142.691406 117.523438 142.269531 117.945312 C 141.847656 118.371094 141.386719 118.746094 140.886719 119.078125 C 140.390625 119.414062 139.863281 119.691406 139.3125 119.921875 C 138.757812 120.152344 138.1875 120.324219 137.601562 120.441406 C 137.015625 120.558594 136.421875 120.617188 135.824219 120.617188 C 135.226562 120.617188 134.632812 120.558594 134.046875 120.441406 C 133.457031 120.324219 132.886719 120.152344 132.335938 119.921875 C 131.78125 119.691406 131.257812 119.414062 130.757812 119.078125 C 130.261719 118.746094 129.800781 118.371094 129.378906 117.945312 C 128.953125 117.523438 128.578125 117.0625 128.242188 116.566406 C 127.910156 116.066406 127.628906 115.542969 127.402344 114.992188 C 127.171875 114.4375 127 113.867188 126.882812 113.28125 C 126.765625 112.695312 126.707031 112.101562 126.707031 111.503906 C 126.707031 110.90625 126.765625 110.3125 126.882812 109.726562 C 127 109.136719 127.171875 108.570312 127.402344 108.015625 C 127.628906 107.464844 127.910156 106.9375 128.242188 106.441406 C 128.578125 105.941406 128.953125 105.484375 129.378906 105.058594 C 129.800781 104.636719 130.261719 104.257812 130.757812 103.925781 C 131.257812 103.59375 131.78125 103.3125 132.335938 103.085938 C 132.886719 102.855469 133.457031 102.683594 134.046875 102.566406 C 134.632812 102.449219 135.226562 102.390625 135.824219 102.390625 C 136.421875 102.390625 137.015625 102.449219 137.601562 102.566406 C 138.1875 102.683594 138.757812 102.855469 139.3125 103.085938 C 139.863281 103.3125 140.390625 103.59375 140.886719 103.925781 C 141.386719 104.257812 141.847656 104.636719 142.269531 105.058594 C 142.691406 105.484375 143.070312 105.941406 143.402344 106.441406 C 143.734375 106.9375 144.015625 107.464844 144.246094 108.015625 C 144.476562 108.570312 144.648438 109.136719 144.765625 109.726562 C 144.882812 110.3125 144.941406 110.90625 144.941406 111.503906 Z M 144.941406 111.503906 " fill-opacity="1" fill-rule="nonzero"/></svg>