<?xml version="1.0" encoding="UTF-8"?><svg xmlns="http://www.w3.org/2000/svg" xmlns:xlink="http://www.w3.org/1999/xlink" contentScriptType="text/ecmascript" width="375" zoomAndPan="magnify" contentStyleType="text/css" viewBox="0 0 375 374.999991" height="374.999991" preserveAspectRatio="xMidYMid meet" version="1.0"><defs><filter x="0%" y="0%" width="100%" xmlns:xlink="http://www.w3.org/1999/xlink" xlink:type="simple" xlink:actuate="onLoad" height="100%" id="filter-remove-color" xlink:show="other"><feColorMatrix values="0 0 0 0 1 0 0 0 0 1 0 0 0 0 1 0 0 0 1 0" color-interpolation-filters="sRGB"/></filter><clipPath id="clip-0"><path d="M 94 116 L 128 116 L 128 139 L 94 139 Z M 94 116 " clip-rule="nonzero"/></clipPath><clipPath id="clip-1"><path d="M 59.871094 114.921875 L 93.390625 88.394531 L 128.765625 133.089844 L 95.242188 159.617188 Z M 59.871094 114.921875 " clip-rule="nonzero"/></clipPath><clipPath id="clip-2"><path d="M 59.871094 114.921875 L 93.390625 88.394531 L 128.765625 133.089844 L 95.242188 159.617188 Z M 59.871094 114.921875 " clip-rule="nonzero"/></clipPath><clipPath id="clip-3"><path d="M 94 107 L 127 107 L 127 141 L 94 141 Z M 94 107 " clip-rule="nonzero"/></clipPath><clipPath id="clip-4"><path d="M 59.871094 114.921875 L 93.390625 88.394531 L 128.765625 133.089844 L 95.242188 159.617188 Z M 59.871094 114.921875 " clip-rule="nonzero"/></clipPath><clipPath id="clip-5"><path d="M 59.871094 114.921875 L 93.390625 88.394531 L 128.765625 133.089844 L 95.242188 159.617188 Z M 59.871094 114.921875 " clip-rule="nonzero"/></clipPath><mask id="mask-0"><g filter="url(#filter-remove-color)"><rect x="-37.5" width="450" fill="rgb(0%, 0%, 0%)" y="-37.499999" height="449.999989" fill-opacity="0.0471"/></g></mask><clipPath id="clip-6"><path d="M 1 9 L 32 9 L 32 24 L 1 24 Z M 1 9 " clip-rule="nonzero"/></clipPath><clipPath id="clip-7"><path d="M -34.128906 7.921875 L -0.609375 -18.605469 L 34.765625 26.089844 L 1.242188 52.617188 Z M -34.128906 7.921875 " clip-rule="nonzero"/></clipPath><clipPath id="clip-8"><path d="M -34.128906 7.921875 L -0.609375 -18.605469 L 34.765625 26.089844 L 1.242188 52.617188 Z M -34.128906 7.921875 " clip-rule="nonzero"/></clipPath><clipPath id="clip-9"><rect x="0" width="33" y="0" height="34"/></clipPath><clipPath id="clip-10"><path d="M 93 111 L 128 111 L 128 147 L 93 147 Z M 93 111 " clip-rule="nonzero"/></clipPath><clipPath id="clip-11"><path d="M 59.871094 114.921875 L 93.390625 88.394531 L 128.765625 133.089844 L 95.242188 159.617188 Z M 59.871094 114.921875 " clip-rule="nonzero"/></clipPath><clipPath id="clip-12"><path d="M 59.871094 114.921875 L 93.390625 88.394531 L 128.765625 133.089844 L 95.242188 159.617188 Z M 59.871094 114.921875 " clip-rule="nonzero"/></clipPath><mask id="mask-1"><g filter="url(#filter-remove-color)"><rect x="-37.5" width="450" fill="rgb(0%, 0%, 0%)" y="-37.499999" height="449.999989" fill-opacity="0.0471"/></g></mask><clipPath id="clip-13"><path d="M 1 11 L 34 11 L 34 28 L 1 28 Z M 1 11 " clip-rule="nonzero"/></clipPath><clipPath id="clip-14"><path d="M -33.128906 3.921875 L 0.390625 -22.605469 L 35.765625 22.089844 L 2.242188 48.617188 Z M -33.128906 3.921875 " clip-rule="nonzero"/></clipPath><clipPath id="clip-15"><path d="M -33.128906 3.921875 L 0.390625 -22.605469 L 35.765625 22.089844 L 2.242188 48.617188 Z M -33.128906 3.921875 " clip-rule="nonzero"/></clipPath><clipPath id="clip-16"><rect x="0" width="35" y="0" height="36"/></clipPath><mask id="mask-2"><g filter="url(#filter-remove-color)"><rect x="-37.5" width="450" fill="rgb(0%, 0%, 0%)" y="-37.499999" height="449.999989" fill-opacity="0.0471"/></g></mask><clipPath id="clip-17"><path d="M 1 11 L 34 11 L 34 28 L 1 28 Z M 1 11 " clip-rule="nonzero"/></clipPath><clipPath id="clip-18"><path d="M -33.128906 3.921875 L 0.390625 -22.605469 L 35.765625 22.089844 L 2.242188 48.617188 Z M -33.128906 3.921875 " clip-rule="nonzero"/></clipPath><clipPath id="clip-19"><path d="M -33.128906 3.921875 L 0.390625 -22.605469 L 35.765625 22.089844 L 2.242188 48.617188 Z M -33.128906 3.921875 " clip-rule="nonzero"/></clipPath><clipPath id="clip-20"><rect x="0" width="35" y="0" height="36"/></clipPath><clipPath id="clip-21"><path d="M 66 101 L 100 101 L 100 135 L 66 135 Z M 66 101 " clip-rule="nonzero"/></clipPath><clipPath id="clip-22"><path d="M 59.871094 114.921875 L 93.390625 88.394531 L 128.765625 133.089844 L 95.242188 159.617188 Z M 59.871094 114.921875 " clip-rule="nonzero"/></clipPath><clipPath id="clip-23"><path d="M 59.871094 114.921875 L 93.390625 88.394531 L 128.765625 133.089844 L 95.242188 159.617188 Z M 59.871094 114.921875 " clip-rule="nonzero"/></clipPath><clipPath id="clip-24"><path d="M 69 107 L 87 107 L 87 125 L 69 125 Z M 69 107 " clip-rule="nonzero"/></clipPath><clipPath id="clip-25"><path d="M 59.871094 114.921875 L 93.390625 88.394531 L 128.765625 133.089844 L 95.242188 159.617188 Z M 59.871094 114.921875 " clip-rule="nonzero"/></clipPath><clipPath id="clip-26"><path d="M 59.871094 114.921875 L 93.390625 88.394531 L 128.765625 133.089844 L 95.242188 159.617188 Z M 59.871094 114.921875 " clip-rule="nonzero"/></clipPath><mask id="mask-3"><g filter="url(#filter-remove-color)"><rect x="-37.5" width="450" fill="rgb(0%, 0%, 0%)" y="-37.499999" height="449.999989" fill-opacity="0.0471"/></g></mask><clipPath id="clip-27"><path d="M 2 2 L 16 2 L 16 16 L 2 16 Z M 2 2 " clip-rule="nonzero"/></clipPath><clipPath id="clip-28"><path d="M -9.128906 7.921875 L 24.390625 -18.605469 L 59.765625 26.089844 L 26.242188 52.617188 Z M -9.128906 7.921875 " clip-rule="nonzero"/></clipPath><clipPath id="clip-29"><path d="M -9.128906 7.921875 L 24.390625 -18.605469 L 59.765625 26.089844 L 26.242188 52.617188 Z M -9.128906 7.921875 " clip-rule="nonzero"/></clipPath><clipPath id="clip-30"><rect x="0" width="18" y="0" height="18"/></clipPath><clipPath id="clip-31"><path d="M 60 95 L 106 95 L 106 140 L 60 140 Z M 60 95 " clip-rule="nonzero"/></clipPath><clipPath id="clip-32"><path d="M 59.871094 114.921875 L 93.390625 88.394531 L 128.765625 133.089844 L 95.242188 159.617188 Z M 59.871094 114.921875 " clip-rule="nonzero"/></clipPath><clipPath id="clip-33"><path d="M 59.871094 114.921875 L 93.390625 88.394531 L 128.765625 133.089844 L 95.242188 159.617188 Z M 59.871094 114.921875 " clip-rule="nonzero"/></clipPath><mask id="mask-4"><g filter="url(#filter-remove-color)"><rect x="-37.5" width="450" fill="rgb(0%, 0%, 0%)" y="-37.499999" height="449.999989" fill-opacity="0.0471"/></g></mask><clipPath id="clip-34"><path d="M 7 6 L 39 6 L 39 39 L 7 39 Z M 7 6 " clip-rule="nonzero"/></clipPath><clipPath id="clip-35"><path d="M -0.128906 19.921875 L 33.390625 -6.605469 L 68.765625 38.089844 L 35.242188 64.617188 Z M -0.128906 19.921875 " clip-rule="nonzero"/></clipPath><clipPath id="clip-36"><path d="M -0.128906 19.921875 L 33.390625 -6.605469 L 68.765625 38.089844 L 35.242188 64.617188 Z M -0.128906 19.921875 " clip-rule="nonzero"/></clipPath><clipPath id="clip-37"><rect x="0" width="46" y="0" height="45"/></clipPath><clipPath id="clip-38"><path d="M 87 101 L 90 101 L 90 103 L 87 103 Z M 87 101 " clip-rule="nonzero"/></clipPath><clipPath id="clip-39"><path d="M 59.871094 114.921875 L 93.390625 88.394531 L 128.765625 133.089844 L 95.242188 159.617188 Z M 59.871094 114.921875 " clip-rule="nonzero"/></clipPath><clipPath id="clip-40"><path d="M 59.871094 114.921875 L 93.390625 88.394531 L 128.765625 133.089844 L 95.242188 159.617188 Z M 59.871094 114.921875 " clip-rule="nonzero"/></clipPath><clipPath id="clip-41"><path d="M 66 94 L 105 94 L 105 134 L 66 134 Z M 66 94 " clip-rule="nonzero"/></clipPath><clipPath id="clip-42"><path d="M 59.871094 114.921875 L 93.390625 88.394531 L 128.765625 133.089844 L 95.242188 159.617188 Z M 59.871094 114.921875 " clip-rule="nonzero"/></clipPath><clipPath id="clip-43"><path d="M 59.871094 114.921875 L 93.390625 88.394531 L 128.765625 133.089844 L 95.242188 159.617188 Z M 59.871094 114.921875 " clip-rule="nonzero"/></clipPath><mask id="mask-5"><g filter="url(#filter-remove-color)"><rect x="-37.5" width="450" fill="rgb(0%, 0%, 0%)" y="-37.499999" height="449.999989" fill-opacity="0.0471"/></g></mask><clipPath id="clip-44"><path d="M 1 7 L 34 7 L 34 30 L 1 30 Z M 1 7 " clip-rule="nonzero"/></clipPath><clipPath id="clip-45"><path d="M -6.128906 20.921875 L 27.390625 -5.605469 L 62.765625 39.089844 L 29.242188 65.617188 Z M -6.128906 20.921875 " clip-rule="nonzero"/></clipPath><clipPath id="clip-46"><path d="M -6.128906 20.921875 L 27.390625 -5.605469 L 62.765625 39.089844 L 29.242188 65.617188 Z M -6.128906 20.921875 " clip-rule="nonzero"/></clipPath><clipPath id="clip-47"><rect x="0" width="39" y="0" height="40"/></clipPath><clipPath id="clip-48"><path d="M 95 116 L 128 116 L 128 139 L 95 139 Z M 95 116 " clip-rule="nonzero"/></clipPath><clipPath id="clip-49"><path d="M 95.457031 127.109375 L 113.101562 113.144531 L 128.925781 133.140625 L 111.28125 147.105469 Z M 95.457031 127.109375 " clip-rule="nonzero"/></clipPath><clipPath id="clip-50"><path d="M 59.871094 114.921875 L 93.390625 88.394531 L 128.765625 133.089844 L 95.242188 159.617188 Z M 59.871094 114.921875 " clip-rule="nonzero"/></clipPath><clipPath id="clip-51"><path d="M 95 113 L 127 113 L 127 141 L 95 141 Z M 95 113 " clip-rule="nonzero"/></clipPath><clipPath id="clip-52"><path d="M 95.457031 127.109375 L 113.101562 113.144531 L 128.925781 133.140625 L 111.28125 147.105469 Z M 95.457031 127.109375 " clip-rule="nonzero"/></clipPath><clipPath id="clip-53"><path d="M 59.871094 114.921875 L 93.390625 88.394531 L 128.765625 133.089844 L 95.242188 159.617188 Z M 59.871094 114.921875 " clip-rule="nonzero"/></clipPath><mask id="mask-6"><g filter="url(#filter-remove-color)"><rect x="-37.5" width="450" fill="rgb(0%, 0%, 0%)" y="-37.499999" height="449.999989" fill-opacity="0.0471"/></g></mask><clipPath id="clip-54"><path d="M 0.28125 3 L 31 3 L 31 18 L 0.28125 18 Z M 0.28125 3 " clip-rule="nonzero"/></clipPath><clipPath id="clip-55"><path d="M 0.457031 14.109375 L 18.101562 0.144531 L 33.925781 20.140625 L 16.28125 34.105469 Z M 0.457031 14.109375 " clip-rule="nonzero"/></clipPath><clipPath id="clip-56"><path d="M -35.128906 1.921875 L -1.609375 -24.605469 L 33.765625 20.089844 L 0.242188 46.617188 Z M -35.128906 1.921875 " clip-rule="nonzero"/></clipPath><clipPath id="clip-57"><rect x="0" width="32" y="0" height="28"/></clipPath><clipPath id="clip-58"><path d="M 95 113 L 128 113 L 128 147 L 95 147 Z M 95 113 " clip-rule="nonzero"/></clipPath><clipPath id="clip-59"><path d="M 95.457031 127.109375 L 113.101562 113.144531 L 128.925781 133.140625 L 111.28125 147.105469 Z M 95.457031 127.109375 " clip-rule="nonzero"/></clipPath><clipPath id="clip-60"><path d="M 59.871094 114.921875 L 93.390625 88.394531 L 128.765625 133.089844 L 95.242188 159.617188 Z M 59.871094 114.921875 " clip-rule="nonzero"/></clipPath><mask id="mask-7"><g filter="url(#filter-remove-color)"><rect x="-37.5" width="450" fill="rgb(0%, 0%, 0%)" y="-37.499999" height="449.999989" fill-opacity="0.0471"/></g></mask><clipPath id="clip-61"><path d="M 0.28125 9 L 32 9 L 32 26 L 0.28125 26 Z M 0.28125 9 " clip-rule="nonzero"/></clipPath><clipPath id="clip-62"><path d="M 0.457031 14.109375 L 18.101562 0.144531 L 33.925781 20.140625 L 16.28125 34.105469 Z M 0.457031 14.109375 " clip-rule="nonzero"/></clipPath><clipPath id="clip-63"><path d="M -35.128906 1.921875 L -1.609375 -24.605469 L 33.765625 20.089844 L 0.242188 46.617188 Z M -35.128906 1.921875 " clip-rule="nonzero"/></clipPath><clipPath id="clip-64"><rect x="0" width="33" y="0" height="34"/></clipPath><mask id="mask-8"><g filter="url(#filter-remove-color)"><rect x="-37.5" width="450" fill="rgb(0%, 0%, 0%)" y="-37.499999" height="449.999989" fill-opacity="0.0471"/></g></mask><clipPath id="clip-65"><path d="M 0.28125 9 L 32 9 L 32 26 L 0.28125 26 Z M 0.28125 9 " clip-rule="nonzero"/></clipPath><clipPath id="clip-66"><path d="M 0.457031 14.109375 L 18.101562 0.144531 L 33.925781 20.140625 L 16.28125 34.105469 Z M 0.457031 14.109375 " clip-rule="nonzero"/></clipPath><clipPath id="clip-67"><path d="M -35.128906 1.921875 L -1.609375 -24.605469 L 33.765625 20.089844 L 0.242188 46.617188 Z M -35.128906 1.921875 " clip-rule="nonzero"/></clipPath><clipPath id="clip-68"><rect x="0" width="33" y="0" height="34"/></clipPath><clipPath id="clip-69"><path d="M 95 113 L 100 113 L 100 135 L 95 135 Z M 95 113 " clip-rule="nonzero"/></clipPath><clipPath id="clip-70"><path d="M 95.457031 127.109375 L 113.101562 113.144531 L 128.925781 133.140625 L 111.28125 147.105469 Z M 95.457031 127.109375 " clip-rule="nonzero"/></clipPath><clipPath id="clip-71"><path d="M 59.871094 114.921875 L 93.390625 88.394531 L 128.765625 133.089844 L 95.242188 159.617188 Z M 59.871094 114.921875 " clip-rule="nonzero"/></clipPath><clipPath id="clip-72"><path d="M 95 113 L 106 113 L 106 140 L 95 140 Z M 95 113 " clip-rule="nonzero"/></clipPath><clipPath id="clip-73"><path d="M 95.457031 127.109375 L 113.101562 113.144531 L 128.925781 133.140625 L 111.28125 147.105469 Z M 95.457031 127.109375 " clip-rule="nonzero"/></clipPath><clipPath id="clip-74"><path d="M 59.871094 114.921875 L 93.390625 88.394531 L 128.765625 133.089844 L 95.242188 159.617188 Z M 59.871094 114.921875 " clip-rule="nonzero"/></clipPath><mask id="mask-9"><g filter="url(#filter-remove-color)"><rect x="-37.5" width="450" fill="rgb(0%, 0%, 0%)" y="-37.499999" height="449.999989" fill-opacity="0.0471"/></g></mask><clipPath id="clip-75"><path d="M 0.28125 0.0390625 L 4 0.0390625 L 4 21 L 0.28125 21 Z M 0.28125 0.0390625 " clip-rule="nonzero"/></clipPath><clipPath id="clip-76"><path d="M 0.457031 14.109375 L 18.101562 0.144531 L 33.925781 20.140625 L 16.28125 34.105469 Z M 0.457031 14.109375 " clip-rule="nonzero"/></clipPath><clipPath id="clip-77"><path d="M -35.128906 1.921875 L -1.609375 -24.605469 L 33.765625 20.089844 L 0.242188 46.617188 Z M -35.128906 1.921875 " clip-rule="nonzero"/></clipPath><clipPath id="clip-78"><rect x="0" width="11" y="0" height="27"/></clipPath><clipPath id="clip-79"><path d="M 95 113 L 105 113 L 105 134 L 95 134 Z M 95 113 " clip-rule="nonzero"/></clipPath><clipPath id="clip-80"><path d="M 95.457031 127.109375 L 113.101562 113.144531 L 128.925781 133.140625 L 111.28125 147.105469 Z M 95.457031 127.109375 " clip-rule="nonzero"/></clipPath><clipPath id="clip-81"><path d="M 59.871094 114.921875 L 93.390625 88.394531 L 128.765625 133.089844 L 95.242188 159.617188 Z M 59.871094 114.921875 " clip-rule="nonzero"/></clipPath><mask id="mask-10"><g filter="url(#filter-remove-color)"><rect x="-37.5" width="450" fill="rgb(0%, 0%, 0%)" y="-37.499999" height="449.999989" fill-opacity="0.0471"/></g></mask><clipPath id="clip-82"><path d="M 0.28125 0.0390625 L 5 0.0390625 L 5 11 L 0.28125 11 Z M 0.28125 0.0390625 " clip-rule="nonzero"/></clipPath><clipPath id="clip-83"><path d="M 0.457031 14.109375 L 18.101562 0.144531 L 33.925781 20.140625 L 16.28125 34.105469 Z M 0.457031 14.109375 " clip-rule="nonzero"/></clipPath><clipPath id="clip-84"><path d="M -35.128906 1.921875 L -1.609375 -24.605469 L 33.765625 20.089844 L 0.242188 46.617188 Z M -35.128906 1.921875 " clip-rule="nonzero"/></clipPath><clipPath id="clip-85"><rect x="0" width="10" y="0" height="21"/></clipPath></defs><g clip-path="url(#clip-0)"><g clip-path="url(#clip-1)"><g clip-path="url(#clip-2)"><path fill="rgb(83.139038%, 61.569214%, 25.099182%)" d="M 113.761719 132.945312 L 109.15625 134.878906 C 108.832031 135.015625 108.402344 134.878906 108.261719 134.554688 L 105.757812 129.628906 L 105.632812 129.566406 L 100.550781 131.660156 C 100.226562 131.800781 99.824219 131.640625 99.65625 131.339844 L 97.003906 126.140625 C 96.929688 125.992188 96.792969 125.871094 96.667969 125.808594 L 94.664062 124.972656 C 94.308594 124.816406 94.152344 124.417969 94.277344 124.085938 L 96.878906 117.023438 C 97.011719 116.640625 97.425781 116.472656 97.789062 116.621094 L 122.976562 125.941406 C 123.148438 126.011719 123.265625 126.105469 123.339844 126.253906 L 127.355469 133.433594 C 127.566406 133.789062 127.390625 134.277344 127 134.425781 L 118.914062 137.71875 L 118.917969 137.671875 L 117.875 138.105469 C 117.550781 138.246094 117.148438 138.085938 116.980469 137.78125 L 114.707031 133.355469 C 114.488281 132.964844 114.105469 132.832031 113.761719 132.945312 Z M 113.761719 132.945312 " fill-opacity="1" fill-rule="nonzero"/></g></g></g><g clip-path="url(#clip-3)"><g clip-path="url(#clip-4)"><g clip-path="url(#clip-5)"><g mask="url(#mask-0)"><g transform="matrix(1, 0, 0, 1, 94, 107)"><g id="source-5" clip-path="url(#clip-9)"><g clip-path="url(#clip-6)"><g clip-path="url(#clip-7)"><g clip-path="url(#clip-8)"><path fill="rgb(0%, 0%, 0%)" d="M 1.917969 12.410156 L 2.820312 9.953125 C 2.953125 9.570312 3.371094 9.402344 3.734375 9.550781 L 28.914062 18.863281 C 29.082031 18.929688 29.203125 19.027344 29.273438 19.171875 L 31.605469 23.363281 " fill-opacity="1" fill-rule="nonzero"/></g></g></g></g></g></g></g></g></g><g clip-path="url(#clip-10)"><g clip-path="url(#clip-11)"><g clip-path="url(#clip-12)"><g mask="url(#mask-1)"><g transform="matrix(1, 0, 0, 1, 93, 111)"><g id="source-8" clip-path="url(#clip-16)"><g clip-path="url(#clip-13)"><g clip-path="url(#clip-14)"><g clip-path="url(#clip-15)"><path fill="rgb(0%, 0%, 0%)" d="M 33.957031 23.371094 L 25.878906 26.675781 L 25.882812 26.625 L 24.839844 27.0625 C 24.515625 27.203125 24.113281 27.042969 23.945312 26.738281 L 21.671875 22.3125 C 21.484375 21.980469 21.105469 21.847656 20.78125 21.988281 L 16.175781 23.921875 C 15.851562 24.058594 15.421875 23.921875 15.28125 23.597656 L 12.777344 18.671875 L 12.652344 18.609375 L 7.570312 20.6875 C 7.246094 20.828125 6.84375 20.667969 6.675781 20.363281 L 4.023438 15.164062 C 3.953125 15.019531 3.8125 14.898438 3.691406 14.835938 L 1.683594 14 C 1.328125 13.84375 1.90625 11.484375 2.015625 11.109375 " fill-opacity="1" fill-rule="nonzero"/></g></g></g></g></g></g><g mask="url(#mask-2)"><g transform="matrix(1, 0, 0, 1, 93, 111)"><g id="source-11" clip-path="url(#clip-20)"><g clip-path="url(#clip-17)"><g clip-path="url(#clip-18)"><g clip-path="url(#clip-19)"><path fill="rgb(0%, 0%, 0%)" d="M 33.957031 23.371094 L 25.878906 26.675781 L 25.882812 26.625 L 24.839844 27.0625 C 24.515625 27.203125 24.113281 27.042969 23.945312 26.738281 L 21.671875 22.3125 C 21.484375 21.980469 21.105469 21.847656 20.78125 21.988281 L 16.175781 23.921875 C 15.851562 24.058594 15.421875 23.921875 15.28125 23.597656 L 12.777344 18.671875 L 12.652344 18.609375 L 7.570312 20.6875 C 7.246094 20.828125 6.84375 20.667969 6.675781 20.363281 L 4.023438 15.164062 C 3.953125 15.019531 3.8125 14.898438 3.691406 14.835938 L 1.683594 14 C 1.328125 13.84375 1.90625 11.484375 2.015625 11.109375 " fill-opacity="1" fill-rule="nonzero"/></g></g></g></g></g></g></g></g></g><g clip-path="url(#clip-21)"><g clip-path="url(#clip-22)"><g clip-path="url(#clip-23)"><path fill="rgb(83.139038%, 61.569214%, 25.099182%)" d="M 67.613281 111.800781 C 67.585938 111.820312 67.609375 111.847656 67.589844 111.859375 C 64.398438 120.335938 68.710938 129.824219 77.1875 133.039062 C 85.664062 136.257812 95.136719 131.96875 98.324219 123.496094 C 98.605469 122.753906 98.832031 121.976562 99.007812 121.214844 C 100.621094 113.742188 96.839844 106.023438 89.757812 102.777344 L 87.398438 101.902344 C 79.3125 99.523438 70.648438 103.769531 67.613281 111.800781 Z M 82.703125 117.355469 C 82.679688 117.417969 82.667969 117.457031 82.636719 117.527344 C 82.636719 117.527344 82.609375 117.546875 82.628906 117.574219 C 81.667969 120.164062 78.769531 121.457031 76.214844 120.476562 C 73.660156 119.492188 72.324219 116.601562 73.296875 114.046875 C 73.296875 114.046875 73.324219 114.027344 73.304688 114 C 73.308594 113.953125 73.328125 113.9375 73.339844 113.898438 C 74.351562 111.429688 77.15625 110.167969 79.699219 111.128906 C 82.203125 112.082031 83.527344 114.847656 82.703125 117.355469 Z M 82.703125 117.355469 " fill-opacity="1" fill-rule="nonzero"/></g></g></g><g clip-path="url(#clip-24)"><g clip-path="url(#clip-25)"><g clip-path="url(#clip-26)"><g mask="url(#mask-3)"><g transform="matrix(1, 0, 0, 1, 69, 107)"><g id="source-14" clip-path="url(#clip-30)"><g clip-path="url(#clip-27)"><g clip-path="url(#clip-28)"><g clip-path="url(#clip-29)"><path fill="rgb(0%, 0%, 0%)" d="M 12.871094 13.714844 C 11.171875 15.058594 8.851562 15.433594 6.820312 14.660156 C 5.246094 14.074219 4.011719 12.902344 3.34375 11.417969 C 2.660156 9.894531 2.582031 8.203125 3.1875 6.664062 L 3.210938 6.605469 C 3.621094 5.566406 4.277344 4.640625 5.121094 3.972656 C 6.847656 2.609375 9.097656 2.25 11.175781 3.027344 C 14.351562 4.246094 16 7.828125 14.835938 11 L 14.828125 11.046875 C 14.433594 12.085938 13.753906 13.015625 12.871094 13.714844 Z M 5.804688 4.78125 C 5.074219 5.359375 4.527344 6.113281 4.203125 6.964844 L 4.179688 7.027344 C 3.699219 8.320312 3.761719 9.695312 4.328125 10.957031 C 4.890625 12.222656 5.929688 13.1875 7.226562 13.671875 C 8.921875 14.316406 10.839844 14.03125 12.269531 12.898438 C 13 12.320312 13.574219 11.546875 13.871094 10.675781 C 13.871094 10.675781 13.894531 10.65625 13.875 10.628906 C 14.859375 7.976562 13.503906 5.003906 10.851562 4.011719 C 9.113281 3.351562 7.246094 3.640625 5.804688 4.78125 Z M 5.804688 4.78125 " fill-opacity="1" fill-rule="nonzero"/></g></g></g></g></g></g></g></g></g><g clip-path="url(#clip-31)"><g clip-path="url(#clip-32)"><g clip-path="url(#clip-33)"><g mask="url(#mask-4)"><g transform="matrix(1, 0, 0, 1, 60, 95)"><g id="source-17" clip-path="url(#clip-37)"><g clip-path="url(#clip-34)"><g clip-path="url(#clip-35)"><g clip-path="url(#clip-36)"><path fill="rgb(0%, 0%, 0%)" d="M 32.734375 34.980469 C 28.429688 38.386719 22.578125 39.289062 17.445312 37.359375 C 9.347656 34.277344 5.214844 25.214844 8.25 17.09375 C 9.261719 14.421875 10.96875 12.082031 13.183594 10.328125 C 17.492188 6.921875 23.34375 6.019531 28.476562 7.949219 C 32.414062 9.433594 35.53125 12.367188 37.265625 16.203125 C 38.992188 20.03125 39.140625 24.28125 37.675781 28.226562 C 36.660156 30.886719 34.96875 33.210938 32.734375 34.980469 Z M 14.054688 11.425781 C 12.035156 13.023438 10.484375 15.164062 9.566406 17.605469 C 6.808594 24.980469 10.550781 33.253906 17.941406 36.050781 C 22.695312 37.847656 27.898438 37.023438 31.859375 33.890625 C 33.878906 32.292969 35.425781 30.152344 36.34375 27.710938 C 37.683594 24.15625 37.550781 20.242188 35.988281 16.765625 C 34.421875 13.289062 31.558594 10.621094 27.980469 9.242188 C 23.25 7.488281 18.046875 8.265625 14.054688 11.425781 Z M 14.054688 11.425781 " fill-opacity="1" fill-rule="nonzero"/></g></g></g></g></g></g></g></g></g><g clip-path="url(#clip-38)"><g clip-path="url(#clip-39)"><g clip-path="url(#clip-40)"><path fill="rgb(83.139038%, 61.569214%, 25.099182%)" d="M 88.734375 102.269531 C 88.28125 102.101562 87.859375 101.972656 87.414062 101.847656 L 89.773438 102.722656 C 89.449219 102.570312 89.085938 102.425781 88.734375 102.269531 Z M 88.734375 102.269531 " fill-opacity="1" fill-rule="nonzero"/></g></g></g><g clip-path="url(#clip-41)"><g clip-path="url(#clip-42)"><g clip-path="url(#clip-43)"><g mask="url(#mask-5)"><g transform="matrix(1, 0, 0, 1, 66, 94)"><g id="source-20" clip-path="url(#clip-47)"><g clip-path="url(#clip-44)"><g clip-path="url(#clip-45)"><g clip-path="url(#clip-46)"><path fill="rgb(0%, 0%, 0%)" d="M 23.761719 8.730469 L 21.40625 7.851562 C 13.3125 5.523438 4.648438 9.769531 1.613281 17.800781 L 7.371094 19.917969 C 8.382812 17.449219 11.1875 16.1875 13.730469 17.148438 C 16.222656 18.105469 17.527344 20.847656 16.710938 23.367188 L 32.324219 29.148438 L 33.035156 27.191406 C 34.644531 19.679688 30.847656 11.976562 23.761719 8.730469 Z M 23.761719 8.730469 " fill-opacity="1" fill-rule="nonzero"/></g></g></g></g></g></g></g></g></g><path fill="rgb(70.199585%, 70.199585%, 70.199585%)" d="M 301.644531 240.871094 C 307.269531 239.789062 314.808594 238.058594 323.914062 238.679688 C 396.671875 243.632812 292.085938 267.863281 286.191406 250.5625 C 283.726562 243.320312 296.667969 240.136719 301.644531 240.871094 Z M 301.644531 240.871094 " fill-opacity="1" fill-rule="nonzero"/><path fill="rgb(100%, 33.329773%, 33.329773%)" d="M 201.320312 296.515625 C 193.582031 313.253906 214.820312 307.765625 218.074219 309.71875 C 223.539062 312.996094 203 311.242188 199.648438 312.257812 C 187.300781 316 169.308594 321.890625 170.886719 317.335938 C 171.4375 315.753906 189.84375 313.476562 190.152344 311.242188 C 190.785156 306.660156 160.171875 312.699219 162.511719 308.449219 C 166.144531 301.835938 185.976562 311.488281 190.992188 306.925781 C 192.128906 305.890625 179.554688 305.136719 180.9375 303.878906 C 185.003906 300.179688 191.902344 306.605469 194.339844 303.625 C 195.085938 302.714844 197.980469 287.402344 201.320312 296.515625 Z M 201.320312 296.515625 " fill-opacity="1" fill-rule="nonzero"/><path fill="rgb(59.999084%, 59.999084%, 59.999084%)" d="M 235.679688 284.890625 C 214.617188 302.238281 207.179688 305.335938 203.464844 302.238281 C 199.746094 299.140625 187.976562 297.28125 187.976562 297.28125 C 187.976562 297.28125 184.257812 286.75 189.214844 283.652344 C 194.171875 280.554688 233.824219 283.652344 235.679688 284.890625 Z M 235.679688 284.890625 " fill-opacity="1" fill-rule="nonzero"/><path fill="rgb(39.99939%, 39.99939%, 39.99939%)" d="M 138.203125 257.191406 C 132.109375 249.96875 127.171875 225.34375 129.21875 220.949219 C 133.46875 226.867188 158.957031 267.125 172.28125 275.15625 C 163.9375 276.390625 143.597656 262.316406 138.203125 257.191406 Z M 138.203125 257.191406 " fill-opacity="1" fill-rule="nonzero"/><path fill="rgb(70.199585%, 70.199585%, 70.199585%)" d="M 108.390625 121.632812 C 112.550781 128.421875 121.742188 168.8125 121.230469 181.042969 C 120.765625 192.15625 119.667969 198.511719 121.09375 208.371094 C 124.441406 231.53125 128.558594 239.441406 152.214844 263.097656 C 162.207031 273.085938 172.335938 278.320312 182.15625 282.863281 C 190.429688 286.691406 213.464844 296.496094 240.625 293.871094 C 267.789062 291.242188 305.101562 287.015625 313.347656 285.984375 C 365.929688 279.402344 369.394531 266.03125 369.265625 265.910156 C 363.90625 260.808594 337.335938 255.574219 320.617188 249.742188 C 310.550781 246.234375 296.503906 243.261719 302.730469 239.847656 C 308.730469 236.558594 333.03125 231.761719 324.742188 229.910156 C 307.152344 225.984375 305.59375 225.050781 302.179688 223.777344 C 288.765625 218.777344 290.074219 217.785156 278.601562 211.789062 C 266.203125 205.304688 269.320312 204.445312 262.96875 201.65625 C 242.875 192.835938 221.386719 166.683594 196.8125 152.8125 C 178.945312 142.722656 165.597656 128.34375 161.101562 121.632812 C 158.738281 118.101562 152.425781 110.222656 151.253906 101.996094 C 149.863281 92.25 143.828125 82.519531 131.976562 80.96875 C 120.53125 79.46875 111.386719 80.242188 105.691406 86.226562 C 100.492188 91.683594 101.875 96.746094 102.183594 102.871094 C 102.878906 116.621094 103.574219 113.96875 108.386719 121.632812 Z M 108.390625 121.632812 " fill-opacity="1" fill-rule="nonzero"/><path fill="rgb(42.349243%, 32.548523%, 32.548523%)" d="M 106.453125 118.996094 C 105.363281 137.339844 120.261719 170.152344 120.46875 171.554688 C 122.882812 187.710938 163.601562 134.855469 193.726562 151.414062 C 178.046875 141.324219 170.511719 132.742188 161.566406 122.53125 C 158.765625 119.335938 155.496094 114.152344 152.15625 102.453125 C 149.449219 92.992188 144.351562 83.359375 132.660156 80.878906 C 121.980469 78.613281 110.429688 80.390625 104.734375 86.375 C 99.539062 91.832031 101.683594 97.425781 101.992188 103.550781 C 102.6875 117.296875 101.636719 111.328125 106.449219 118.996094 Z M 106.453125 118.996094 " fill-opacity="1" fill-rule="nonzero"/><path fill="rgb(100%, 100%, 100%)" d="M 121.007812 102.152344 C 121.007812 105.714844 124.355469 108.605469 128.488281 108.605469 C 132.621094 108.605469 135.972656 105.714844 135.972656 102.152344 C 135.972656 98.589844 132.621094 95.703125 128.488281 95.703125 C 124.355469 95.703125 121.007812 98.589844 121.007812 102.152344 Z M 121.007812 102.152344 " fill-opacity="1" fill-rule="evenodd"/><path fill="rgb(0%, 0%, 0%)" d="M 121.820312 102.839844 C 121.820312 105.128906 123.707031 106.988281 126.03125 106.988281 C 128.359375 106.988281 130.246094 105.128906 130.246094 102.839844 C 130.246094 100.550781 128.359375 98.691406 126.03125 98.691406 C 123.707031 98.691406 121.820312 100.550781 121.820312 102.839844 Z M 121.820312 102.839844 " fill-opacity="1" fill-rule="evenodd"/><path fill="rgb(100%, 100%, 100%)" d="M 125 100.925781 C 125 102.671875 126.648438 104.085938 128.679688 104.085938 C 130.707031 104.085938 132.355469 102.671875 132.355469 100.925781 C 132.355469 99.179688 130.707031 97.765625 128.679688 97.765625 C 126.648438 97.765625 125 99.179688 125 100.925781 Z M 125 100.925781 " fill-opacity="1" fill-rule="evenodd"/><path fill="rgb(100%, 100%, 100%)" d="M 100.140625 101.898438 C 100.140625 105.042969 101.660156 107.59375 103.53125 107.59375 C 105.402344 107.59375 106.921875 105.042969 106.921875 101.898438 C 106.921875 98.757812 105.402344 96.207031 103.53125 96.207031 C 101.660156 96.207031 100.140625 98.757812 100.140625 101.898438 Z M 100.140625 101.898438 " fill-opacity="1" fill-rule="evenodd"/><path fill="rgb(0%, 0%, 0%)" d="M 102.238281 103.148438 C 102.238281 104.890625 103.132812 106.296875 104.230469 106.296875 C 105.332031 106.296875 106.222656 104.890625 106.222656 103.148438 C 106.222656 101.410156 105.332031 100 104.230469 100 C 103.132812 100 102.238281 101.410156 102.238281 103.148438 Z M 102.238281 103.148438 " fill-opacity="1" fill-rule="evenodd"/><path fill="rgb(100%, 100%, 100%)" d="M 101.289062 102.09375 C 101.289062 103.414062 102.011719 104.488281 102.902344 104.488281 C 103.796875 104.488281 104.519531 103.414062 104.519531 102.09375 C 104.519531 100.769531 103.796875 99.699219 102.902344 99.699219 C 102.011719 99.699219 101.289062 100.769531 101.289062 102.09375 Z M 101.289062 102.09375 " fill-opacity="1" fill-rule="evenodd"/><path fill="rgb(66.668701%, 26.669312%, 0%)" d="M 106.996094 117.792969 C 109.851562 120.136719 121.09375 117.898438 121.09375 114.617188 C 121.09375 114.359375 121.402344 114.425781 121.171875 114.539062 C 120.359375 114.945312 119.164062 114.964844 118.226562 115.238281 C 115.847656 115.933594 112.292969 115.457031 110.484375 115.859375 C 109.320312 116.117188 107.726562 116.984375 106.996094 117.792969 Z M 106.996094 117.792969 " fill-opacity="1" fill-rule="nonzero"/><path fill="rgb(100%, 100%, 100%)" d="M 105.445312 106.175781 C 106.257812 101.65625 115.40625 101.410156 117.605469 103.46875 C 117.996094 103.835938 119.75 105.035156 119 105.402344 C 117.664062 106.054688 113.425781 104.589844 111.488281 104.550781 C 109.078125 104.503906 106.808594 105.757812 105.367188 106.253906 " fill-opacity="1" fill-rule="nonzero"/><path fill="rgb(59.999084%, 59.999084%, 59.999084%)" d="M 168.410156 246.964844 C 193.8125 256.257812 221.074219 269.886719 227.890625 268.648438 C 234.703125 267.410156 247.09375 262.453125 247.09375 262.453125 C 229.65625 277.433594 174.832031 275.660156 168.410156 246.964844 Z M 168.410156 246.964844 " fill-opacity="1" fill-rule="nonzero"/><path fill="rgb(92.549133%, 92.549133%, 92.549133%)" d="M 260.417969 289.710938 C 244.308594 304.890625 238.113281 307.886719 232.847656 307.058594 C 227.328125 306.195312 217.355469 302.101562 217.355469 302.101562 C 217.355469 302.101562 213.640625 291.570312 218.597656 288.472656 C 223.554688 285.375 256.390625 286.925781 260.417969 289.714844 Z M 260.417969 289.710938 " fill-opacity="1" fill-rule="nonzero"/><path fill="rgb(100%, 50.19989%, 50.19989%)" d="M 234.707031 306.4375 C 226.117188 326.855469 249.683594 320.164062 253.292969 322.546875 C 259.351562 326.542969 236.566406 324.402344 232.847656 325.644531 C 219.148438 330.207031 199.1875 337.394531 200.941406 331.839844 C 201.550781 329.90625 221.972656 327.128906 222.316406 324.402344 C 223.015625 318.8125 189.054688 326.179688 191.644531 320.996094 C 195.679688 312.929688 217.679688 324.699219 223.242188 319.136719 C 224.503906 317.875 210.554688 316.957031 212.089844 315.421875 C 216.601562 310.910156 224.253906 318.746094 226.960938 315.109375 C 227.785156 314.003906 230.996094 295.320312 234.707031 306.4375 Z M 234.707031 306.4375 " fill-opacity="1" fill-rule="nonzero"/><path fill="rgb(28.239441%, 21.569824%, 21.569824%)" d="M 106.53125 118.058594 C 110.324219 118.699219 113.53125 119.375 116.167969 118.058594 C 117.421875 117.832031 119.9375 116.871094 120.660156 115.867188 C 120.660156 118.199219 116.441406 121.398438 114.964844 122.875 C 111.808594 125.015625 110.007812 127.558594 109.597656 130.871094 C 108.222656 130.882812 108.019531 130.066406 107.1875 127.695312 C 106.597656 121.746094 106.117188 121.667969 106.53125 118.058594 Z M 106.53125 118.058594 " fill-opacity="1" fill-rule="nonzero"/><path fill="rgb(78.42865%, 71.759033%, 71.759033%)" d="M 191.851562 150.367188 C 166.414062 142.726562 148.429688 160.011719 128.875 172.925781 C 127.964844 173.382812 125.09375 175.386719 122.851562 174.351562 C 122.738281 174.296875 121.828125 175.003906 120.878906 173.035156 C 121.199219 175.335938 120.941406 178.558594 121.207031 180.921875 C 122.105469 183.09375 126.972656 181.300781 132.160156 180.046875 C 143.121094 176.902344 151.707031 166.9375 160.964844 160.988281 C 170.195312 156.878906 181.667969 150.835938 191.851562 150.367188 Z M 191.851562 150.367188 " fill-opacity="1" fill-rule="nonzero"/><path fill="rgb(42.349243%, 32.548523%, 32.548523%)" d="M 239.660156 263.691406 C 263.246094 272.109375 288.269531 275.578125 314.628906 271.125 C 317.855469 270.582031 337.777344 266.847656 335.695312 263.070312 C 329.078125 251.078125 252.472656 257.976562 239.664062 263.691406 Z M 239.660156 263.691406 " fill-opacity="1" fill-rule="nonzero"/><path fill="rgb(28.239441%, 21.569824%, 21.569824%)" d="M 245.210938 263.28125 C 304.355469 262.402344 310.03125 264.699219 326.675781 258.566406 C 343.320312 252.433594 338.066406 251.558594 327.113281 248.929688 C 316.160156 246.300781 305.648438 245.425781 305.648438 245.425781 C 305.648438 245.425781 317.75 244.445312 317.035156 240.167969 C 316.597656 237.539062 307.320312 233.269531 301.960938 232.464844 C 297.324219 231.769531 311.976562 227.136719 310.726562 225.761719 C 309.253906 224.136719 282.222656 214.527344 282.222656 214.527344 C 282.222656 214.527344 285.644531 215.226562 287.246094 224.835938 C 288.910156 234.8125 285.496094 239.976562 279.464844 246.484375 C 273.566406 252.851562 246.964844 262.402344 245.210938 263.28125 Z M 245.210938 263.28125 " fill-opacity="1" fill-rule="nonzero"/><path fill="rgb(79.998779%, 79.998779%, 79.998779%)" d="M 171.585938 251.117188 C 192.628906 271.414062 233.976562 272.515625 258.847656 260.605469 C 280.496094 252.027344 297.042969 240.378906 288.671875 216.53125 C 259.480469 192.921875 236.339844 176.367188 200.941406 179.710938 C 171.292969 180.746094 153.855469 228.46875 171.589844 251.117188 Z M 171.585938 251.117188 " fill-opacity="1" fill-rule="nonzero"/><path fill="rgb(100%, 49.798584%, 16.468811%)" d="M 115.515625 104.011719 C 109.097656 102.992188 107.472656 104.332031 103.203125 108.195312 C 102.023438 110.261719 101.730469 112.097656 101.421875 114.390625 C 101.113281 117.488281 101.191406 119.5 103.203125 119.8125 C 106.355469 120.296875 105.371094 117.640625 109.089844 116.25 C 112.046875 115.140625 113.425781 116.09375 116.988281 115.628906 C 120.550781 115.164062 121.632812 114.855469 122.410156 112.839844 C 124.902344 107.78125 119.910156 105.480469 115.515625 104.011719 Z M 115.515625 104.011719 " fill-opacity="1" fill-rule="nonzero"/><path fill="rgb(66.668701%, 26.669312%, 0%)" d="M 115.285156 107.804688 C 116.121094 107.765625 116.28125 108.21875 116.445312 108.578125 C 117.234375 110.296875 112.496094 111.648438 112.496094 111.054688 C 112.496094 110.59375 114.472656 109.617188 114.742188 109.351562 C 114.84375 109.25 112.714844 108.316406 115.285156 107.804688 Z M 115.285156 107.804688 " fill-opacity="1" fill-rule="nonzero"/><path fill="rgb(100%, 79.998779%, 66.668701%)" d="M 108.175781 105.136719 C 105.875 106.339844 104.453125 108.203125 103.683594 110.71875 C 102.980469 113.039062 102.699219 116.964844 102.699219 116.964844 C 104.328125 113.761719 105.890625 110.261719 109.160156 108.53125 C 112.273438 106.972656 113.542969 105.464844 113.542969 105.464844 C 113.542969 105.464844 111.679688 104.257812 108.175781 105.136719 Z M 108.175781 105.136719 " fill-opacity="1" fill-rule="nonzero"/><g clip-path="url(#clip-48)"><g clip-path="url(#clip-49)"><g clip-path="url(#clip-50)"><path fill="rgb(83.139038%, 61.569214%, 25.099182%)" d="M 113.761719 132.945312 L 109.15625 134.878906 C 108.832031 135.015625 108.402344 134.878906 108.261719 134.554688 L 105.757812 129.628906 L 105.632812 129.566406 L 100.550781 131.660156 C 100.226562 131.800781 99.824219 131.640625 99.65625 131.339844 L 97.003906 126.140625 C 96.929688 125.992188 96.792969 125.871094 96.667969 125.808594 L 94.664062 124.972656 C 94.308594 124.816406 94.152344 124.417969 94.277344 124.085938 L 96.878906 117.023438 C 97.011719 116.640625 97.425781 116.472656 97.789062 116.621094 L 122.976562 125.941406 C 123.148438 126.011719 123.265625 126.105469 123.339844 126.253906 L 127.355469 133.433594 C 127.566406 133.789062 127.390625 134.277344 127 134.425781 L 118.914062 137.71875 L 118.917969 137.671875 L 117.875 138.105469 C 117.550781 138.246094 117.148438 138.085938 116.980469 137.78125 L 114.707031 133.355469 C 114.488281 132.964844 114.105469 132.832031 113.761719 132.945312 Z M 113.761719 132.945312 " fill-opacity="1" fill-rule="nonzero"/></g></g></g><g clip-path="url(#clip-51)"><g clip-path="url(#clip-52)"><g clip-path="url(#clip-53)"><g mask="url(#mask-6)"><g transform="matrix(1, 0, 0, 1, 95, 113)"><g id="source-23" clip-path="url(#clip-57)"><g clip-path="url(#clip-54)"><g clip-path="url(#clip-55)"><g clip-path="url(#clip-56)"><path fill="rgb(0%, 0%, 0%)" d="M 0.917969 6.410156 L 1.820312 3.953125 C 1.953125 3.570312 2.371094 3.402344 2.734375 3.550781 L 27.914062 12.863281 C 28.082031 12.929688 28.203125 13.027344 28.273438 13.171875 L 30.605469 17.363281 " fill-opacity="1" fill-rule="nonzero"/></g></g></g></g></g></g></g></g></g><g clip-path="url(#clip-58)"><g clip-path="url(#clip-59)"><g clip-path="url(#clip-60)"><g mask="url(#mask-7)"><g transform="matrix(1, 0, 0, 1, 95, 113)"><g id="source-26" clip-path="url(#clip-64)"><g clip-path="url(#clip-61)"><g clip-path="url(#clip-62)"><g clip-path="url(#clip-63)"><path fill="rgb(0%, 0%, 0%)" d="M 31.957031 21.371094 L 23.878906 24.675781 L 23.882812 24.625 L 22.839844 25.0625 C 22.515625 25.203125 22.113281 25.042969 21.945312 24.738281 L 19.671875 20.3125 C 19.484375 19.980469 19.105469 19.847656 18.78125 19.988281 L 14.175781 21.921875 C 13.851562 22.058594 13.421875 21.921875 13.28125 21.597656 L 10.777344 16.671875 L 10.652344 16.609375 L 5.570312 18.6875 C 5.246094 18.828125 4.84375 18.667969 4.675781 18.363281 L 2.023438 13.164062 C 1.953125 13.019531 1.8125 12.898438 1.691406 12.835938 L -0.316406 12 C -0.671875 11.84375 -0.09375 9.484375 0.015625 9.109375 " fill-opacity="1" fill-rule="nonzero"/></g></g></g></g></g></g><g mask="url(#mask-8)"><g transform="matrix(1, 0, 0, 1, 95, 113)"><g id="source-29" clip-path="url(#clip-68)"><g clip-path="url(#clip-65)"><g clip-path="url(#clip-66)"><g clip-path="url(#clip-67)"><path fill="rgb(0%, 0%, 0%)" d="M 31.957031 21.371094 L 23.878906 24.675781 L 23.882812 24.625 L 22.839844 25.0625 C 22.515625 25.203125 22.113281 25.042969 21.945312 24.738281 L 19.671875 20.3125 C 19.484375 19.980469 19.105469 19.847656 18.78125 19.988281 L 14.175781 21.921875 C 13.851562 22.058594 13.421875 21.921875 13.28125 21.597656 L 10.777344 16.671875 L 10.652344 16.609375 L 5.570312 18.6875 C 5.246094 18.828125 4.84375 18.667969 4.675781 18.363281 L 2.023438 13.164062 C 1.953125 13.019531 1.8125 12.898438 1.691406 12.835938 L -0.316406 12 C -0.671875 11.84375 -0.09375 9.484375 0.015625 9.109375 " fill-opacity="1" fill-rule="nonzero"/></g></g></g></g></g></g></g></g></g><g clip-path="url(#clip-69)"><g clip-path="url(#clip-70)"><g clip-path="url(#clip-71)"><path fill="rgb(83.139038%, 61.569214%, 25.099182%)" d="M 67.613281 111.800781 C 67.585938 111.820312 67.609375 111.847656 67.589844 111.859375 C 64.398438 120.335938 68.710938 129.824219 77.1875 133.039062 C 85.664062 136.257812 95.136719 131.96875 98.324219 123.496094 C 98.605469 122.753906 98.832031 121.976562 99.007812 121.214844 C 100.621094 113.742188 96.839844 106.023438 89.757812 102.777344 L 87.398438 101.902344 C 79.3125 99.523438 70.648438 103.769531 67.613281 111.800781 Z M 82.703125 117.355469 C 82.679688 117.417969 82.667969 117.457031 82.636719 117.527344 C 82.636719 117.527344 82.609375 117.546875 82.628906 117.574219 C 81.667969 120.164062 78.769531 121.457031 76.214844 120.476562 C 73.660156 119.492188 72.324219 116.601562 73.296875 114.046875 C 73.296875 114.046875 73.324219 114.027344 73.304688 114 C 73.308594 113.953125 73.328125 113.9375 73.339844 113.898438 C 74.351562 111.429688 77.15625 110.167969 79.699219 111.128906 C 82.203125 112.082031 83.527344 114.847656 82.703125 117.355469 Z M 82.703125 117.355469 " fill-opacity="1" fill-rule="nonzero"/></g></g></g><g clip-path="url(#clip-72)"><g clip-path="url(#clip-73)"><g clip-path="url(#clip-74)"><g mask="url(#mask-9)"><g transform="matrix(1, 0, 0, 1, 95, 113)"><g id="source-32" clip-path="url(#clip-78)"><g clip-path="url(#clip-75)"><g clip-path="url(#clip-76)"><g clip-path="url(#clip-77)"><path fill="rgb(0%, 0%, 0%)" d="M -2.265625 16.980469 C -6.570312 20.386719 -12.421875 21.289062 -17.554688 19.359375 C -25.652344 16.277344 -29.785156 7.214844 -26.75 -0.90625 C -25.738281 -3.578125 -24.03125 -5.917969 -21.816406 -7.671875 C -17.507812 -11.078125 -11.65625 -11.980469 -6.523438 -10.050781 C -2.585938 -8.566406 0.53125 -5.632812 2.265625 -1.796875 C 3.992188 2.03125 4.140625 6.28125 2.675781 10.226562 C 1.660156 12.886719 -0.03125 15.210938 -2.265625 16.980469 Z M -20.945312 -6.574219 C -22.964844 -4.976562 -24.515625 -2.835938 -25.433594 -0.394531 C -28.191406 6.980469 -24.449219 15.253906 -17.058594 18.050781 C -12.304688 19.847656 -7.101562 19.023438 -3.140625 15.890625 C -1.121094 14.292969 0.425781 12.152344 1.34375 9.710938 C 2.683594 6.15625 2.550781 2.242188 0.988281 -1.234375 C -0.578125 -4.710938 -3.441406 -7.378906 -7.019531 -8.757812 C -11.75 -10.511719 -16.953125 -9.734375 -20.945312 -6.574219 Z M -20.945312 -6.574219 " fill-opacity="1" fill-rule="nonzero"/></g></g></g></g></g></g></g></g></g><g clip-path="url(#clip-79)"><g clip-path="url(#clip-80)"><g clip-path="url(#clip-81)"><g mask="url(#mask-10)"><g transform="matrix(1, 0, 0, 1, 95, 113)"><g id="source-35" clip-path="url(#clip-85)"><g clip-path="url(#clip-82)"><g clip-path="url(#clip-83)"><g clip-path="url(#clip-84)"><path fill="rgb(0%, 0%, 0%)" d="M -5.238281 -10.269531 L -7.59375 -11.148438 C -15.6875 -13.476562 -24.351562 -9.230469 -27.386719 -1.199219 L -21.628906 0.917969 C -20.617188 -1.550781 -17.8125 -2.8125 -15.269531 -1.851562 C -12.777344 -0.894531 -11.472656 1.847656 -12.289062 4.367188 L 3.324219 10.148438 L 4.035156 8.191406 C 5.644531 0.679688 1.847656 -7.023438 -5.238281 -10.269531 Z M -5.238281 -10.269531 " fill-opacity="1" fill-rule="nonzero"/></g></g></g></g></g></g></g></g></g></svg>