<?xml version="1.0" encoding="UTF-8"?><svg xmlns="http://www.w3.org/2000/svg" xmlns:xlink="http://www.w3.org/1999/xlink" contentScriptType="text/ecmascript" width="375" zoomAndPan="magnify" contentStyleType="text/css" viewBox="0 0 375 374.999991" height="374.999991" preserveAspectRatio="xMidYMid meet" version="1.0"><defs><clipPath id="clip-0"><path d="M 79 333 L 283 333 L 283 366.984375 L 79 366.984375 Z M 79 333 " clip-rule="nonzero"/></clipPath><clipPath id="clip-1"><path d="M 106 17.484375 L 131 17.484375 L 131 66 L 106 66 Z M 106 17.484375 " clip-rule="nonzero"/></clipPath><clipPath id="clip-2"><path d="M 12.613281 148 L 71 148 L 71 151 L 12.613281 151 Z M 12.613281 148 " clip-rule="nonzero"/></clipPath><clipPath id="clip-3"><path d="M 232 17.484375 L 257 17.484375 L 257 66 L 232 66 Z M 232 17.484375 " clip-rule="nonzero"/></clipPath><clipPath id="clip-4"><path d="M 292 148 L 350.113281 148 L 350.113281 151 L 292 151 Z M 292 148 " clip-rule="nonzero"/></clipPath><clipPath id="clip-5"><path d="M 179 319.667969 L 215 319.667969 L 215 331 L 179 331 Z M 179 319.667969 " clip-rule="nonzero"/></clipPath><clipPath id="clip-6"><path d="M 169 319.667969 L 200 319.667969 L 200 321 L 169 321 Z M 169 319.667969 " clip-rule="nonzero"/></clipPath><clipPath id="clip-7"><path d="M 154 319.667969 L 182 319.667969 L 182 324 L 154 324 Z M 154 319.667969 " clip-rule="nonzero"/></clipPath></defs><path fill="rgb(70.199585%, 70.199585%, 70.199585%)" d="M 128.742188 282.300781 C 125.285156 281.636719 120.648438 280.574219 115.054688 280.957031 C 70.335938 284 134.617188 298.890625 138.238281 288.257812 C 139.757812 283.808594 131.800781 281.847656 128.742188 282.300781 Z M 128.742188 282.300781 " fill-opacity="1" fill-rule="nonzero"/><path fill="rgb(100%, 33.329773%, 33.329773%)" d="M 190.402344 316.496094 C 195.160156 326.78125 182.105469 323.410156 180.105469 324.609375 C 176.75 326.621094 189.371094 325.542969 191.433594 326.167969 C 199.023438 328.46875 210.082031 332.089844 209.109375 329.289062 C 208.773438 328.316406 197.457031 326.917969 197.269531 325.542969 C 196.882812 322.730469 215.695312 326.441406 214.257812 323.828125 C 212.023438 319.765625 199.835938 325.695312 196.753906 322.890625 C 196.054688 322.257812 203.78125 321.792969 202.933594 321.019531 C 200.433594 318.746094 196.195312 322.695312 194.695312 320.863281 C 194.238281 320.304688 192.457031 310.894531 190.402344 316.496094 Z M 190.402344 316.496094 " fill-opacity="1" fill-rule="nonzero"/><path fill="rgb(59.999084%, 59.999084%, 59.999084%)" d="M 169.285156 309.351562 C 182.234375 320.011719 186.800781 321.914062 189.085938 320.011719 C 191.371094 318.109375 198.609375 316.964844 198.609375 316.964844 C 198.609375 316.964844 200.890625 310.496094 197.847656 308.589844 C 194.800781 306.6875 170.429688 308.589844 169.285156 309.351562 Z M 169.285156 309.351562 " fill-opacity="1" fill-rule="nonzero"/><path fill="rgb(39.99939%, 39.99939%, 39.99939%)" d="M 229.199219 292.328125 C 232.945312 287.894531 235.980469 272.761719 234.71875 270.058594 C 232.109375 273.695312 216.441406 298.433594 208.253906 303.371094 C 213.382812 304.128906 225.882812 295.480469 229.199219 292.328125 Z M 229.199219 292.328125 " fill-opacity="1" fill-rule="nonzero"/><path fill="rgb(70.199585%, 70.199585%, 70.199585%)" d="M 247.523438 209.03125 C 244.964844 213.203125 239.316406 238.023438 239.628906 245.539062 C 239.917969 252.367188 240.589844 256.269531 239.714844 262.332031 C 237.65625 276.5625 235.128906 281.425781 220.585938 295.960938 C 214.445312 302.097656 208.21875 305.3125 202.183594 308.105469 C 197.097656 310.460938 182.941406 316.484375 166.246094 314.867188 C 149.550781 313.253906 126.617188 310.65625 121.546875 310.023438 C 89.230469 305.980469 87.101562 297.761719 87.179688 297.6875 C 90.472656 294.554688 106.804688 291.335938 117.082031 287.753906 C 123.265625 285.597656 131.902344 283.769531 128.074219 281.675781 C 124.386719 279.652344 109.453125 276.703125 114.546875 275.566406 C 125.359375 273.15625 126.3125 272.582031 128.414062 271.796875 C 136.65625 268.726562 135.855469 268.117188 142.90625 264.429688 C 150.527344 260.445312 148.609375 259.917969 152.515625 258.203125 C 164.863281 252.785156 178.070312 236.714844 193.175781 228.191406 C 204.15625 221.992188 212.363281 213.15625 215.125 209.03125 C 216.578125 206.859375 220.457031 202.019531 221.179688 196.964844 C 222.03125 190.976562 225.742188 184.996094 233.027344 184.042969 C 240.0625 183.121094 245.683594 183.597656 249.183594 187.273438 C 252.375 190.628906 251.527344 193.738281 251.335938 197.503906 C 250.910156 205.949219 250.484375 204.320312 247.523438 209.03125 Z M 247.523438 209.03125 " fill-opacity="1" fill-rule="nonzero"/><path fill="rgb(42.349243%, 32.548523%, 32.548523%)" d="M 248.714844 207.410156 C 249.382812 218.679688 240.226562 238.847656 240.097656 239.707031 C 238.617188 249.636719 213.589844 217.15625 195.070312 227.332031 C 204.707031 221.132812 209.339844 215.855469 214.839844 209.582031 C 216.558594 207.617188 218.570312 204.433594 220.625 197.246094 C 222.285156 191.429688 225.417969 185.511719 232.605469 183.988281 C 239.171875 182.597656 246.269531 183.6875 249.769531 187.363281 C 252.964844 190.71875 251.644531 194.15625 251.457031 197.917969 C 251.027344 206.367188 251.675781 202.699219 248.714844 207.410156 Z M 248.714844 207.410156 " fill-opacity="1" fill-rule="nonzero"/><path fill="rgb(100%, 100%, 100%)" d="M 239.769531 197.0625 C 239.769531 199.25 237.710938 201.023438 235.171875 201.023438 C 232.628906 201.023438 230.570312 199.25 230.570312 197.0625 C 230.570312 194.871094 232.628906 193.097656 235.171875 193.097656 C 237.710938 193.097656 239.769531 194.871094 239.769531 197.0625 Z M 239.769531 197.0625 " fill-opacity="1" fill-rule="evenodd"/><path fill="rgb(0%, 0%, 0%)" d="M 239.269531 197.484375 C 239.269531 198.890625 238.109375 200.03125 236.679688 200.03125 C 235.25 200.03125 234.089844 198.890625 234.089844 197.484375 C 234.089844 196.074219 235.25 194.933594 236.679688 194.933594 C 238.109375 194.933594 239.269531 196.074219 239.269531 197.484375 Z M 239.269531 197.484375 " fill-opacity="1" fill-rule="evenodd"/><path fill="rgb(100%, 100%, 100%)" d="M 237.3125 196.304688 C 237.3125 197.378906 236.300781 198.25 235.054688 198.25 C 233.804688 198.25 232.792969 197.378906 232.792969 196.304688 C 232.792969 195.234375 233.804688 194.363281 235.054688 194.363281 C 236.300781 194.363281 237.3125 195.234375 237.3125 196.304688 Z M 237.3125 196.304688 " fill-opacity="1" fill-rule="evenodd"/><path fill="rgb(100%, 100%, 100%)" d="M 252.59375 196.90625 C 252.59375 198.835938 251.660156 200.402344 250.507812 200.402344 C 249.359375 200.402344 248.425781 198.835938 248.425781 196.90625 C 248.425781 194.972656 249.359375 193.40625 250.507812 193.40625 C 251.660156 193.40625 252.59375 194.972656 252.59375 196.90625 Z M 252.59375 196.90625 " fill-opacity="1" fill-rule="evenodd"/><path fill="rgb(0%, 0%, 0%)" d="M 251.304688 197.671875 C 251.304688 198.742188 250.753906 199.609375 250.078125 199.609375 C 249.402344 199.609375 248.855469 198.742188 248.855469 197.671875 C 248.855469 196.605469 249.402344 195.738281 250.078125 195.738281 C 250.753906 195.738281 251.304688 196.605469 251.304688 197.671875 Z M 251.304688 197.671875 " fill-opacity="1" fill-rule="evenodd"/><path fill="rgb(100%, 100%, 100%)" d="M 251.886719 197.023438 C 251.886719 197.835938 251.441406 198.496094 250.894531 198.496094 C 250.347656 198.496094 249.902344 197.835938 249.902344 197.023438 C 249.902344 196.210938 250.347656 195.554688 250.894531 195.554688 C 251.441406 195.554688 251.886719 196.210938 251.886719 197.023438 Z M 251.886719 197.023438 " fill-opacity="1" fill-rule="evenodd"/><path fill="rgb(66.668701%, 26.669312%, 0%)" d="M 248.378906 206.671875 C 246.625 208.113281 239.714844 206.738281 239.714844 204.71875 C 239.714844 204.5625 239.527344 204.601562 239.667969 204.671875 C 240.164062 204.921875 240.902344 204.933594 241.476562 205.101562 C 242.941406 205.53125 245.125 205.234375 246.238281 205.480469 C 246.953125 205.640625 247.929688 206.175781 248.378906 206.671875 Z M 248.378906 206.671875 " fill-opacity="1" fill-rule="nonzero"/><path fill="rgb(100%, 100%, 100%)" d="M 249.332031 199.535156 C 248.835938 196.757812 243.210938 196.605469 241.859375 197.867188 C 241.617188 198.09375 240.539062 198.832031 241.003906 199.058594 C 241.820312 199.457031 244.425781 198.558594 245.621094 198.535156 C 247.101562 198.503906 248.496094 199.273438 249.378906 199.582031 " fill-opacity="1" fill-rule="nonzero"/><path fill="rgb(59.999084%, 59.999084%, 59.999084%)" d="M 210.632812 286.046875 C 195.019531 291.757812 178.265625 300.132812 174.074219 299.371094 C 169.886719 298.609375 162.269531 295.5625 162.269531 295.5625 C 172.988281 304.769531 206.683594 303.679688 210.632812 286.046875 Z M 210.632812 286.046875 " fill-opacity="1" fill-rule="nonzero"/><path fill="rgb(92.549133%, 92.549133%, 92.549133%)" d="M 154.082031 312.316406 C 163.984375 321.640625 167.792969 323.480469 171.027344 322.972656 C 174.417969 322.441406 180.546875 319.929688 180.546875 319.929688 C 180.546875 319.929688 182.832031 313.457031 179.785156 311.554688 C 176.738281 309.648438 156.558594 310.601562 154.082031 312.316406 Z M 154.082031 312.316406 " fill-opacity="1" fill-rule="nonzero"/><path fill="rgb(100%, 50.19989%, 50.19989%)" d="M 169.886719 322.59375 C 175.164062 335.136719 160.679688 331.027344 158.460938 332.488281 C 154.734375 334.945312 168.742188 333.632812 171.027344 334.394531 C 179.445312 337.199219 191.714844 341.613281 190.636719 338.199219 C 190.265625 337.011719 177.710938 335.308594 177.5 333.632812 C 177.070312 330.195312 197.945312 334.722656 196.351562 331.539062 C 193.871094 326.582031 180.347656 333.816406 176.929688 330.394531 C 176.15625 329.621094 184.726562 329.054688 183.785156 328.113281 C 181.011719 325.339844 176.308594 330.15625 174.644531 327.921875 C 174.136719 327.242188 172.164062 315.761719 169.886719 322.59375 Z M 169.886719 322.59375 " fill-opacity="1" fill-rule="nonzero"/><path fill="rgb(28.239441%, 21.569824%, 21.569824%)" d="M 248.664062 206.832031 C 246.332031 207.230469 244.363281 207.644531 242.742188 206.832031 C 241.972656 206.695312 240.425781 206.105469 239.980469 205.488281 C 239.980469 206.921875 242.574219 208.886719 243.480469 209.796875 C 245.421875 211.109375 246.527344 212.671875 246.78125 214.707031 C 247.625 214.714844 247.75 214.210938 248.261719 212.757812 C 248.625 209.097656 248.921875 209.054688 248.664062 206.835938 Z M 248.664062 206.832031 " fill-opacity="1" fill-rule="nonzero"/><path fill="rgb(78.42865%, 71.759033%, 71.759033%)" d="M 196.222656 226.6875 C 211.859375 221.992188 222.914062 232.613281 234.933594 240.550781 C 235.492188 240.828125 237.257812 242.0625 238.632812 241.425781 C 238.707031 241.390625 239.261719 241.828125 239.847656 240.617188 C 239.648438 242.03125 239.808594 244.011719 239.644531 245.464844 C 239.09375 246.796875 236.101562 245.695312 232.914062 244.925781 C 226.175781 242.992188 220.898438 236.871094 215.207031 233.214844 C 209.535156 230.691406 202.484375 226.976562 196.226562 226.6875 Z M 196.222656 226.6875 " fill-opacity="1" fill-rule="nonzero"/><path fill="rgb(42.349243%, 32.548523%, 32.548523%)" d="M 166.839844 296.324219 C 152.34375 301.5 136.964844 303.628906 120.761719 300.894531 C 118.777344 300.558594 106.53125 298.265625 107.8125 295.945312 C 111.878906 288.574219 158.964844 292.8125 166.835938 296.324219 Z M 166.839844 296.324219 " fill-opacity="1" fill-rule="nonzero"/><path fill="rgb(28.239441%, 21.569824%, 21.569824%)" d="M 163.425781 296.070312 C 127.074219 295.535156 123.589844 296.945312 113.355469 293.175781 C 103.125 289.40625 106.355469 288.867188 113.089844 287.253906 C 119.820312 285.640625 126.28125 285.101562 126.28125 285.101562 C 126.28125 285.101562 118.84375 284.5 119.28125 281.871094 C 119.550781 280.253906 125.253906 277.628906 128.546875 277.136719 C 131.398438 276.710938 122.390625 273.863281 123.160156 273.015625 C 124.066406 272.019531 140.679688 266.113281 140.679688 266.113281 C 140.679688 266.113281 138.578125 266.542969 137.59375 272.449219 C 136.570312 278.578125 138.667969 281.75 142.375 285.75 C 146 289.664062 162.351562 295.535156 163.429688 296.070312 Z M 163.425781 296.070312 " fill-opacity="1" fill-rule="nonzero"/><path fill="rgb(79.998779%, 79.998779%, 79.998779%)" d="M 208.679688 288.597656 C 195.746094 301.070312 170.332031 301.746094 155.046875 294.429688 C 141.742188 289.15625 131.570312 282 136.714844 267.347656 C 154.65625 252.835938 168.882812 242.664062 190.636719 244.71875 C 208.863281 245.355469 219.578125 274.679688 208.679688 288.597656 Z M 208.679688 288.597656 " fill-opacity="1" fill-rule="nonzero"/><path fill="rgb(100%, 49.798584%, 16.468811%)" d="M 243.144531 198.203125 C 247.089844 197.578125 248.085938 198.398438 250.710938 200.773438 C 251.433594 202.042969 251.617188 203.171875 251.804688 204.582031 C 251.996094 206.484375 251.949219 207.722656 250.710938 207.910156 C 248.773438 208.210938 249.378906 206.578125 247.09375 205.722656 C 245.277344 205.039062 244.429688 205.628906 242.238281 205.339844 C 240.050781 205.054688 239.382812 204.867188 238.90625 203.628906 C 237.375 200.519531 240.441406 199.105469 243.144531 198.203125 Z M 243.144531 198.203125 " fill-opacity="1" fill-rule="nonzero"/><path fill="rgb(66.668701%, 26.669312%, 0%)" d="M 243.285156 200.53125 C 242.773438 200.507812 242.671875 200.785156 242.570312 201.007812 C 242.085938 202.0625 245 202.898438 245 202.53125 C 245 202.246094 243.785156 201.648438 243.621094 201.484375 C 243.558594 201.421875 244.867188 200.847656 243.285156 200.53125 Z M 243.285156 200.53125 " fill-opacity="1" fill-rule="nonzero"/><path fill="rgb(100%, 79.998779%, 66.668701%)" d="M 247.65625 198.894531 C 249.070312 199.632812 249.945312 200.777344 250.414062 202.324219 C 250.847656 203.75 251.019531 206.160156 251.019531 206.160156 C 250.019531 204.195312 249.058594 202.042969 247.050781 200.980469 C 245.136719 200.023438 244.355469 199.09375 244.355469 199.09375 C 244.355469 199.09375 245.5 198.355469 247.65625 198.894531 Z M 247.65625 198.894531 " fill-opacity="1" fill-rule="nonzero"/><path fill="rgb(100%, 100%, 100%)" d="M 214.039062 237.742188 L 148.3125 237.742188 C 147.839844 237.742188 147.460938 237.363281 147.460938 236.890625 L 147.460938 232.832031 C 147.460938 232.359375 147.839844 231.984375 148.3125 231.984375 L 214.039062 231.984375 C 214.507812 231.984375 214.886719 232.359375 214.886719 232.832031 L 214.886719 236.890625 C 214.886719 237.363281 214.507812 237.742188 214.039062 237.742188 Z M 149.164062 236.042969 L 213.1875 236.042969 L 213.1875 233.683594 L 149.164062 233.683594 Z M 149.164062 236.042969 " fill-opacity="1" fill-rule="nonzero"/><g clip-path="url(#clip-0)"><path fill="rgb(83.139038%, 61.569214%, 25.099182%)" d="M 180.609375 341.125 C 180.609375 341.125 101.097656 342.539062 79.09375 333.289062 L 79.09375 357.644531 C 79.09375 357.644531 97.695312 366.898438 180.609375 366.332031 C 263.613281 366.898438 282.121094 357.644531 282.121094 357.644531 L 282.121094 333.289062 C 260.121094 342.539062 180.609375 341.125 180.609375 341.125 Z M 180.609375 341.125 " fill-opacity="1" fill-rule="nonzero"/></g><path fill="rgb(100%, 100%, 100%)" d="M 277.96875 353.492188 C 277.96875 353.585938 277.304688 353.773438 276.078125 354.152344 C 274.851562 354.53125 272.960938 355.003906 270.507812 355.476562 C 265.691406 356.511719 258.515625 357.644531 249.730469 358.589844 C 232.074219 360.480469 207.617188 361.421875 180.609375 361.234375 C 153.601562 361.421875 129.046875 360.480469 111.484375 358.589844 C 102.703125 357.644531 95.523438 356.511719 90.707031 355.476562 C 88.253906 355.003906 86.460938 354.4375 85.136719 354.152344 C 83.910156 353.773438 83.25 353.585938 83.25 353.492188 C 83.25 353.398438 83.910156 353.585938 85.230469 353.871094 C 86.460938 354.152344 88.347656 354.53125 90.804688 355.003906 C 95.621094 355.851562 102.703125 356.984375 111.578125 357.835938 C 129.144531 359.628906 153.601562 360.574219 180.703125 360.382812 C 207.710938 360.574219 232.167969 359.628906 249.828125 357.835938 C 258.609375 356.984375 265.691406 355.945312 270.601562 355.003906 C 273.058594 354.53125 274.945312 354.152344 276.171875 353.871094 C 277.304688 353.585938 277.96875 353.398438 277.96875 353.492188 Z M 277.96875 353.492188 " fill-opacity="1" fill-rule="nonzero"/><path fill="rgb(100%, 100%, 100%)" d="M 277.96875 339.425781 C 278.0625 339.898438 273.152344 341.21875 267.011719 342.257812 C 260.875 343.296875 255.777344 343.863281 255.777344 343.390625 C 255.679688 342.917969 260.78125 342.351562 266.917969 341.3125 C 273.058594 340.367188 277.875 338.953125 277.96875 339.425781 Z M 277.96875 339.425781 " fill-opacity="1" fill-rule="nonzero"/><path fill="rgb(100%, 100%, 100%)" d="M 250.203125 344.050781 C 250.203125 344.144531 249.730469 344.238281 248.789062 344.332031 C 247.84375 344.429688 246.523438 344.617188 244.726562 344.804688 C 241.234375 345.183594 236.132812 345.65625 229.808594 346.035156 C 217.246094 346.789062 199.777344 347.261719 180.515625 347.167969 C 161.25 347.355469 143.875 346.882812 131.21875 346.035156 C 124.894531 345.65625 119.792969 345.183594 116.300781 344.804688 C 114.503906 344.617188 113.183594 344.429688 112.238281 344.332031 C 111.296875 344.238281 110.824219 344.144531 110.824219 344.050781 C 110.824219 343.957031 112.804688 344.050781 116.300781 344.332031 C 119.792969 344.617188 124.894531 344.902344 131.21875 345.277344 C 143.78125 345.9375 161.25 346.410156 180.417969 346.222656 C 199.683594 346.410156 217.058594 345.9375 229.617188 345.277344 C 235.945312 344.996094 240.949219 344.617188 244.539062 344.332031 C 248.316406 344.050781 250.203125 343.957031 250.203125 344.050781 Z M 250.203125 344.050781 " fill-opacity="1" fill-rule="nonzero"/><path fill="rgb(100%, 100%, 100%)" d="M 103.742188 343.199219 C 103.644531 343.671875 99.019531 343.105469 93.351562 342.066406 C 87.6875 341.125 83.15625 339.800781 83.25 339.328125 C 83.34375 338.859375 87.875 340.179688 93.542969 341.125 C 99.207031 342.257812 103.835938 342.730469 103.742188 343.199219 Z M 103.742188 343.199219 " fill-opacity="1" fill-rule="nonzero"/><path fill="rgb(83.139038%, 61.569214%, 25.099182%)" d="M 273.246094 123.21875 C 252 84.792969 217.910156 70.347656 198.832031 65.15625 C 198.363281 64.964844 197.984375 64.871094 197.984375 64.871094 L 197.984375 64.964844 C 196.757812 64.683594 195.621094 64.304688 194.488281 64.117188 C 194.300781 64.023438 194.207031 64.023438 194.207031 64.023438 C 194.113281 63.925781 193.921875 63.925781 193.828125 64.023438 C 188.445312 62.792969 185.046875 62.417969 184.859375 62.417969 L 182.214844 62.417969 C 182.023438 62.324219 181.929688 62.226562 181.835938 62.226562 L 181.742188 62.417969 L 180.324219 62.417969 L 180.230469 62.226562 C 180.136719 62.226562 180.042969 62.324219 179.851562 62.417969 L 177.113281 62.417969 C 177.019531 62.417969 173.621094 62.792969 168.238281 64.023438 C 168.144531 64.023438 167.953125 64.023438 167.859375 64.023438 C 167.859375 64.023438 167.765625 64.023438 167.671875 64.117188 C 166.539062 64.398438 165.40625 64.683594 164.175781 64.964844 L 164.175781 64.871094 C 164.175781 64.871094 163.894531 64.964844 163.328125 65.15625 C 144.347656 70.347656 110.066406 84.792969 88.820312 123.3125 C 84.949219 130.300781 82.871094 138.890625 82.871094 148.050781 L 82.871094 336.402344 L 84.570312 336.402344 L 84.570312 259.550781 C 85.894531 259.929688 88.160156 260.402344 92.21875 260.871094 L 92.21875 327.71875 L 93.917969 327.71875 L 93.917969 260.96875 C 95.902344 261.15625 98.359375 261.34375 101.191406 261.535156 L 101.191406 327.621094 L 102.890625 327.621094 L 102.890625 261.722656 C 105.535156 261.910156 108.652344 262.101562 112.050781 262.289062 C 112.804688 262.289062 113.5625 262.382812 114.316406 262.382812 L 114.316406 325.828125 L 116.015625 325.828125 L 116.015625 262.476562 C 120.265625 262.667969 124.800781 262.855469 129.519531 262.949219 L 129.519531 325.828125 L 131.21875 325.828125 L 131.21875 263.042969 C 136.699219 263.234375 142.363281 263.328125 148.3125 263.421875 L 148.3125 325.828125 L 150.011719 325.828125 L 150.011719 263.421875 C 156.148438 263.515625 162.476562 263.609375 168.992188 263.609375 L 168.992188 325.828125 L 170.691406 325.828125 L 170.691406 263.609375 C 173.996094 263.609375 177.398438 263.609375 180.796875 263.609375 C 184.195312 263.609375 187.5 263.609375 190.902344 263.609375 L 190.902344 325.828125 L 192.601562 325.828125 L 192.601562 263.609375 C 199.117188 263.609375 205.445312 263.515625 211.582031 263.421875 L 211.582031 325.828125 L 213.28125 325.828125 L 213.28125 263.421875 C 219.230469 263.328125 224.992188 263.234375 230.375 263.042969 L 230.375 325.828125 L 232.074219 325.828125 L 232.074219 262.949219 C 236.796875 262.761719 241.328125 262.667969 245.578125 262.476562 L 245.578125 325.828125 L 247.277344 325.828125 L 247.277344 262.382812 C 248.03125 262.382812 248.789062 262.289062 249.542969 262.289062 C 253.039062 262.101562 256.058594 261.910156 258.703125 261.722656 L 258.703125 327.621094 L 260.402344 327.621094 L 260.402344 261.535156 C 263.234375 261.34375 265.691406 261.15625 267.675781 260.96875 L 267.675781 327.621094 L 269.375 327.621094 L 269.375 260.777344 C 273.433594 260.304688 275.703125 259.929688 277.023438 259.457031 L 277.023438 336.308594 L 278.722656 336.308594 L 278.722656 147.953125 C 279.101562 138.796875 277.117188 130.207031 273.246094 123.21875 Z M 271.734375 124.070312 C 275.417969 130.867188 277.402344 139.078125 277.402344 147.953125 L 277.402344 167.214844 C 276.078125 166.835938 273.8125 166.367188 269.753906 165.894531 L 269.753906 150.597656 C 269.753906 144.082031 268.714844 137.945312 266.636719 132.1875 C 261.726562 118.496094 254.453125 107.355469 246.617188 98.386719 C 249.449219 97.914062 250.769531 97.539062 251.335938 97.160156 C 258.796875 104.429688 265.785156 113.304688 271.734375 124.070312 Z M 94.109375 167.402344 C 96.1875 167.214844 98.640625 167.027344 101.378906 166.835938 L 101.378906 170.613281 C 98.640625 170.425781 96.1875 170.238281 94.109375 170.046875 Z M 92.410156 169.765625 C 89.007812 169.386719 86.648438 169.007812 85.421875 168.632812 C 86.648438 168.253906 89.007812 167.875 92.410156 167.5 Z M 120.925781 94.988281 C 122.34375 94.894531 123.855469 94.707031 125.648438 94.613281 C 124.800781 95.554688 124.042969 96.5 123.289062 97.445312 C 121.777344 97.347656 120.359375 97.160156 119.039062 97.066406 C 119.605469 96.40625 120.265625 95.746094 120.925781 94.988281 Z M 116.867188 96.878906 C 115.074219 96.6875 113.65625 96.40625 112.804688 96.214844 C 113.9375 95.933594 115.734375 95.648438 118.378906 95.367188 C 117.90625 95.839844 117.339844 96.3125 116.867188 96.878906 Z M 243.121094 97.066406 C 241.894531 97.160156 240.476562 97.347656 238.871094 97.445312 C 238.117188 96.5 237.265625 95.554688 236.511719 94.613281 C 238.210938 94.707031 239.816406 94.894531 241.234375 94.988281 C 241.894531 95.746094 242.460938 96.40625 243.121094 97.066406 Z M 243.785156 95.273438 C 246.332031 95.554688 248.222656 95.839844 249.355469 96.121094 C 248.503906 96.40625 247.089844 96.59375 245.292969 96.78125 C 244.820312 96.3125 244.253906 95.839844 243.785156 95.273438 Z M 268.050781 165.703125 C 265.976562 165.515625 263.613281 165.328125 260.78125 165.136719 L 260.78125 150.976562 C 260.78125 147.484375 260.402344 143.988281 259.742188 140.683594 C 256.25 123.691406 248.789062 110 240.195312 99.050781 C 241.894531 98.859375 243.3125 98.765625 244.539062 98.578125 C 252.566406 107.640625 259.929688 118.875 264.9375 132.660156 C 266.917969 138.230469 267.957031 144.179688 267.957031 150.503906 L 267.957031 165.703125 Z M 133.769531 94.140625 C 132.921875 95.367188 132.070312 96.6875 131.125 98.011719 C 129.046875 97.914062 127.066406 97.726562 125.269531 97.632812 C 126.214844 96.5 127.066406 95.460938 128.007812 94.421875 C 129.898438 94.421875 131.785156 94.234375 133.769531 94.140625 Z M 129.804688 92.628906 C 137.640625 84.320312 145.953125 78.089844 152.84375 73.746094 C 149.917969 76.105469 146.800781 78.9375 143.589844 82.242188 C 140.851562 85.074219 137.925781 88.476562 135.09375 92.34375 C 133.863281 92.441406 132.730469 92.441406 131.597656 92.535156 C 130.9375 92.628906 130.371094 92.628906 129.804688 92.628906 Z M 181.082031 93.101562 C 183.253906 93.101562 185.328125 93.101562 187.40625 93.101562 C 187.691406 94.988281 187.878906 97.066406 188.164062 99.144531 C 185.894531 99.144531 183.535156 99.144531 181.082031 99.144531 C 178.71875 99.144531 176.359375 99.144531 173.996094 99.144531 C 174.28125 97.066406 174.46875 94.988281 174.753906 93.101562 C 176.832031 93.101562 178.910156 93.101562 181.082031 93.101562 Z M 175.035156 91.402344 C 177.398438 74.785156 180.136719 66.664062 181.082031 64.117188 C 182.023438 66.664062 184.761719 74.785156 187.125 91.402344 C 185.140625 91.402344 183.0625 91.402344 181.082031 91.402344 C 179.003906 91.402344 177.019531 91.402344 175.035156 91.402344 Z M 181.082031 100.9375 C 183.535156 100.9375 185.894531 100.9375 188.351562 100.9375 C 189.769531 113.777344 190.902344 130.488281 191.183594 151.824219 L 191.183594 163.15625 C 187.878906 163.15625 184.480469 163.15625 181.082031 163.15625 C 177.679688 163.15625 174.375 163.15625 170.976562 163.15625 L 170.976562 151.824219 C 171.164062 130.488281 172.394531 113.777344 173.808594 100.9375 C 176.167969 100.9375 178.625 100.9375 181.082031 100.9375 Z M 234.058594 94.515625 C 235 95.554688 235.945312 96.59375 236.890625 97.632812 C 235.09375 97.726562 233.113281 97.914062 230.941406 98.011719 C 230.089844 96.6875 229.242188 95.367188 228.296875 94.140625 C 230.28125 94.234375 232.261719 94.421875 234.058594 94.515625 Z M 226.972656 92.34375 C 220.835938 84.132812 214.320312 77.902344 208.75 73.464844 C 215.738281 77.804688 224.234375 84.132812 232.355469 92.628906 C 231.789062 92.628906 231.222656 92.535156 230.5625 92.535156 C 229.429688 92.535156 228.203125 92.441406 226.972656 92.34375 Z M 245.859375 146.539062 L 245.859375 164.289062 C 241.609375 164.097656 237.078125 163.910156 232.355469 163.816406 L 232.355469 146.539062 C 230.5625 127.65625 225.9375 112.359375 220.457031 100.277344 C 223.859375 100.183594 226.972656 99.992188 229.996094 99.804688 C 237.363281 111.417969 243.785156 126.804688 245.859375 146.539062 Z M 230.75 146.539062 L 230.75 163.722656 C 225.273438 163.53125 219.609375 163.4375 213.660156 163.34375 L 213.660156 146.539062 C 212.148438 127.277344 209.316406 112.359375 205.820312 100.75 C 210.355469 100.652344 214.699219 100.558594 218.851562 100.371094 C 224.234375 112.265625 228.957031 127.5625 230.75 146.539062 Z M 211.863281 146.539062 L 211.863281 163.25 C 205.726562 163.15625 199.398438 163.0625 192.882812 163.0625 L 192.882812 151.730469 C 192.695312 130.394531 191.5625 113.683594 190.144531 100.84375 C 194.867188 100.84375 199.496094 100.75 203.933594 100.652344 C 207.425781 112.265625 210.355469 127.183594 211.863281 146.539062 Z M 169.277344 151.730469 L 169.277344 163.0625 C 162.761719 163.0625 156.433594 163.15625 150.296875 163.25 L 150.296875 146.539062 C 151.804688 127.183594 154.734375 112.171875 158.320312 100.652344 C 162.761719 100.75 167.386719 100.84375 172.109375 100.84375 C 170.597656 113.777344 169.558594 130.394531 169.277344 151.730469 Z M 148.597656 146.539062 L 148.597656 163.34375 C 142.648438 163.4375 136.886719 163.53125 131.503906 163.722656 L 131.503906 146.632812 C 133.296875 127.65625 138.019531 112.265625 143.496094 100.277344 C 147.652344 100.464844 151.996094 100.558594 156.527344 100.652344 C 152.941406 112.265625 150.011719 127.277344 148.597656 146.539062 Z M 129.710938 146.539062 L 129.710938 163.722656 C 124.988281 163.910156 120.453125 164.003906 116.207031 164.195312 L 116.207031 146.539062 C 118.28125 126.996094 124.515625 111.605469 132.070312 99.710938 C 134.996094 99.898438 138.113281 99.992188 141.417969 100.183594 C 136.226562 111.984375 131.503906 127.371094 129.710938 146.539062 Z M 130.085938 99.710938 C 122.910156 111.417969 116.582031 126.902344 114.503906 146.539062 L 114.503906 164.289062 C 113.75 164.289062 112.996094 164.382812 112.238281 164.382812 C 108.746094 164.570312 105.722656 164.761719 103.078125 164.949219 L 103.078125 150.976562 C 103.078125 147.578125 103.457031 144.273438 104.117188 141.0625 C 107.707031 123.878906 115.261719 110.191406 124.042969 99.332031 C 125.835938 99.425781 127.820312 99.519531 130.085938 99.710938 Z M 114.503906 166.082031 L 114.503906 171.273438 C 110.351562 171.085938 106.480469 170.898438 103.078125 170.613281 L 103.078125 166.648438 C 106.480469 166.460938 110.351562 166.269531 114.503906 166.082031 Z M 116.207031 165.988281 C 120.359375 165.800781 124.894531 165.609375 129.710938 165.515625 L 129.710938 171.9375 C 124.894531 171.746094 120.359375 171.652344 116.207031 171.464844 Z M 131.410156 165.421875 C 136.792969 165.234375 142.457031 165.136719 148.5 165.042969 L 148.5 172.3125 C 142.457031 172.21875 136.699219 172.03125 131.410156 171.9375 Z M 150.296875 165.042969 C 156.339844 164.949219 162.667969 164.855469 169.277344 164.855469 L 169.277344 172.597656 C 162.667969 172.597656 156.339844 172.503906 150.296875 172.40625 Z M 170.976562 164.761719 C 174.28125 164.761719 177.585938 164.761719 181.082031 164.761719 C 184.480469 164.761719 187.878906 164.761719 191.183594 164.761719 L 191.183594 172.597656 C 187.878906 172.597656 184.574219 172.597656 181.082031 172.597656 C 177.679688 172.597656 174.28125 172.597656 170.976562 172.597656 Z M 192.882812 164.855469 C 199.496094 164.855469 205.820312 164.949219 211.863281 165.042969 L 211.863281 172.40625 C 205.820312 172.503906 199.496094 172.597656 192.882812 172.597656 Z M 213.566406 165.042969 C 219.609375 165.136719 225.367188 165.328125 230.65625 165.421875 L 230.65625 171.9375 C 225.273438 172.125 219.609375 172.21875 213.566406 172.3125 Z M 232.453125 165.515625 C 237.265625 165.703125 241.800781 165.800781 245.957031 165.988281 L 245.957031 171.371094 C 241.800781 171.558594 237.265625 171.746094 232.453125 171.839844 Z M 247.65625 166.082031 C 251.808594 166.269531 255.683594 166.460938 259.082031 166.742188 L 259.082031 170.707031 C 255.683594 170.898438 251.90625 171.179688 247.65625 171.371094 Z M 249.828125 164.476562 C 249.070312 164.476562 248.316406 164.382812 247.558594 164.382812 L 247.558594 146.539062 C 245.484375 127.183594 239.34375 111.792969 231.886719 99.804688 C 234.246094 99.710938 236.230469 99.519531 238.023438 99.425781 C 246.804688 110.285156 254.359375 124.070312 257.949219 141.15625 C 258.609375 144.367188 258.988281 147.671875 258.988281 151.070312 L 258.988281 165.042969 C 256.34375 164.761719 253.320312 164.664062 249.828125 164.476562 Z M 234.8125 92.816406 C 225.558594 82.714844 215.546875 75.539062 207.804688 70.914062 C 216.019531 74.972656 227.917969 82.054688 239.25 93.195312 C 237.929688 93.007812 236.511719 92.910156 234.8125 92.816406 Z M 217.34375 83.566406 C 219.703125 86.019531 222.253906 88.945312 224.800781 92.34375 C 222.160156 92.25 219.324219 92.15625 216.398438 92.0625 C 210.542969 81.300781 204.3125 73.839844 199.964844 69.308594 C 204.5 72.140625 210.828125 76.765625 217.34375 83.566406 Z M 226.21875 94.046875 C 227.164062 95.367188 228.109375 96.6875 229.050781 98.105469 C 226.21875 98.292969 223.195312 98.386719 219.890625 98.484375 C 219.136719 96.78125 218.285156 95.179688 217.4375 93.667969 C 220.457031 93.855469 223.480469 93.949219 226.21875 94.046875 Z M 217.910156 98.578125 C 213.941406 98.671875 209.691406 98.859375 205.160156 98.953125 C 204.5 96.972656 203.933594 95.082031 203.273438 93.289062 C 207.519531 93.382812 211.582031 93.480469 215.453125 93.574219 C 216.304688 95.273438 217.152344 96.878906 217.910156 98.578125 Z M 203.367188 99.050781 C 199.117188 99.144531 194.585938 99.144531 189.957031 99.238281 C 189.671875 97.160156 189.484375 95.082031 189.203125 93.195312 C 193.449219 93.195312 197.511719 93.289062 201.382812 93.382812 C 202.042969 95.082031 202.707031 96.972656 203.367188 99.050781 Z M 188.917969 91.402344 C 186.839844 76.863281 184.574219 68.742188 183.253906 65.058594 C 186.746094 67.796875 194.207031 74.972656 200.722656 91.589844 C 196.851562 91.496094 192.882812 91.496094 188.917969 91.402344 Z M 173.242188 91.402344 C 169.277344 91.402344 165.308594 91.496094 161.4375 91.496094 C 167.953125 74.878906 175.320312 67.703125 178.910156 64.964844 C 177.585938 68.835938 175.320312 76.957031 173.242188 91.402344 Z M 172.960938 93.195312 C 172.675781 95.082031 172.488281 97.066406 172.203125 99.238281 C 167.578125 99.238281 163.042969 99.144531 158.792969 99.050781 C 159.457031 97.066406 160.117188 95.179688 160.777344 93.382812 C 164.742188 93.195312 168.804688 93.195312 172.960938 93.195312 Z M 156.90625 98.953125 C 152.371094 98.859375 148.125 98.765625 144.15625 98.578125 C 145.007812 96.878906 145.855469 95.179688 146.707031 93.574219 C 150.484375 93.480469 154.546875 93.382812 158.792969 93.289062 C 158.226562 95.082031 157.566406 96.972656 156.90625 98.953125 Z M 142.269531 98.578125 C 138.964844 98.484375 135.941406 98.292969 133.203125 98.199219 C 134.148438 96.78125 135.09375 95.460938 136.035156 94.140625 C 138.679688 94.046875 141.609375 93.855469 144.628906 93.761719 C 143.875 95.273438 143.117188 96.878906 142.269531 98.578125 Z M 137.359375 92.25 C 146.140625 80.828125 155.582031 73.464844 161.816406 69.402344 C 158.792969 72.519531 154.828125 77.144531 150.769531 83.375 C 149.164062 85.832031 147.367188 88.757812 145.667969 91.96875 C 142.742188 92.0625 140.003906 92.15625 137.359375 92.25 Z M 127.253906 92.816406 C 125.648438 92.910156 124.136719 93.007812 122.816406 93.101562 C 134.148438 81.960938 146.046875 74.878906 154.261719 70.914062 C 146.519531 75.539062 136.601562 82.714844 127.253906 92.816406 Z M 121.964844 99.144531 C 113.371094 110 106.007812 123.785156 102.417969 140.78125 C 101.757812 144.082031 101.378906 147.484375 101.378906 151.070312 L 101.378906 165.234375 C 98.546875 165.421875 96.089844 165.609375 94.109375 165.800781 L 94.109375 150.691406 C 94.109375 144.460938 95.148438 138.417969 97.128906 132.847656 C 102.136719 118.96875 109.5 107.734375 117.527344 98.765625 C 118.753906 98.859375 120.265625 98.953125 121.964844 99.144531 Z M 101.378906 172.3125 L 101.378906 254.453125 C 98.546875 254.640625 96.089844 254.832031 94.109375 255.019531 L 94.109375 171.746094 C 96.089844 171.9375 98.546875 172.125 101.378906 172.3125 Z M 103.078125 172.40625 C 105.722656 172.597656 108.839844 172.785156 112.238281 172.972656 C 112.996094 172.972656 113.75 173.070312 114.503906 173.070312 L 114.503906 253.699219 C 113.75 253.699219 112.996094 253.792969 112.238281 253.792969 C 108.746094 253.980469 105.722656 254.167969 103.078125 254.359375 Z M 116.207031 173.164062 C 120.453125 173.351562 124.988281 173.539062 129.710938 173.636719 L 129.710938 253.132812 C 124.988281 253.320312 120.453125 253.414062 116.207031 253.601562 Z M 131.410156 173.636719 C 136.886719 173.824219 142.550781 173.917969 148.5 174.011719 L 148.5 252.566406 C 142.550781 252.660156 136.792969 252.753906 131.410156 252.941406 Z M 150.296875 174.105469 C 156.433594 174.203125 162.761719 174.296875 169.277344 174.296875 L 169.277344 252.375 C 162.761719 252.375 156.433594 252.46875 150.296875 252.566406 Z M 170.976562 174.296875 C 174.28125 174.296875 177.679688 174.296875 181.082031 174.296875 C 184.480469 174.296875 187.785156 174.296875 191.183594 174.296875 L 191.183594 252.375 C 187.878906 252.375 184.480469 252.375 181.082031 252.375 C 177.679688 252.375 174.375 252.375 170.976562 252.375 Z M 192.882812 174.296875 C 199.398438 174.296875 205.726562 174.203125 211.863281 174.105469 L 211.863281 252.660156 C 205.726562 252.566406 199.398438 252.46875 192.882812 252.46875 Z M 213.566406 174.105469 C 219.515625 174.011719 225.273438 173.917969 230.65625 173.730469 L 230.65625 253.132812 C 225.179688 252.941406 219.515625 252.847656 213.566406 252.753906 Z M 232.453125 173.636719 C 237.171875 173.445312 241.707031 173.351562 245.957031 173.164062 L 245.957031 253.601562 C 241.707031 253.414062 237.171875 253.226562 232.453125 253.132812 Z M 247.65625 173.070312 C 248.410156 173.070312 249.164062 172.972656 249.921875 172.972656 C 253.414062 172.785156 256.4375 172.597656 259.082031 172.503906 L 259.082031 254.359375 C 256.4375 254.167969 253.320312 253.980469 249.921875 253.792969 C 249.164062 253.792969 248.410156 253.699219 247.65625 253.699219 Z M 260.78125 172.3125 C 263.613281 172.125 266.070312 171.9375 268.050781 171.746094 L 268.050781 255.019531 C 265.976562 254.832031 263.613281 254.640625 260.78125 254.453125 Z M 260.78125 170.613281 L 260.78125 166.835938 C 263.519531 167.027344 265.976562 167.214844 268.050781 167.402344 L 268.050781 169.953125 C 265.878906 170.140625 263.519531 170.425781 260.78125 170.613281 Z M 269.753906 167.59375 C 273.152344 167.96875 275.511719 168.347656 276.738281 168.726562 C 275.511719 169.101562 273.152344 169.480469 269.753906 169.859375 Z M 248.316406 94.234375 C 246.898438 93.949219 244.820312 93.667969 241.988281 93.382812 C 232.453125 83.753906 222.441406 76.957031 214.414062 72.425781 C 224.898438 76.957031 236.890625 83.847656 248.316406 94.234375 Z M 184.761719 64.023438 C 184.859375 64.023438 188.164062 64.398438 193.546875 65.625 C 195.054688 66.757812 205.066406 75.066406 214.414062 91.96875 C 210.636719 91.875 206.671875 91.777344 202.609375 91.683594 C 196.191406 74.691406 188.824219 67.136719 184.761719 64.023438 Z M 177.304688 64.023438 C 173.335938 67.136719 165.972656 74.785156 159.550781 91.589844 C 155.488281 91.683594 151.523438 91.777344 147.746094 91.875 C 157.09375 74.972656 167.199219 66.757812 168.617188 65.53125 C 173.902344 64.398438 177.113281 64.023438 177.304688 64.023438 Z M 120.171875 93.382812 C 117.339844 93.667969 115.261719 93.949219 113.84375 94.234375 C 125.175781 83.847656 137.265625 76.957031 147.746094 72.425781 C 139.625 76.957031 129.710938 83.753906 120.171875 93.382812 Z M 90.425781 124.070312 C 96.375 113.304688 103.363281 104.429688 110.824219 97.160156 C 111.390625 97.539062 112.710938 98.011719 115.542969 98.386719 C 107.707031 107.453125 100.53125 118.496094 95.523438 132.1875 C 93.449219 137.945312 92.410156 144.082031 92.410156 150.597656 L 92.410156 165.894531 C 88.347656 166.367188 86.082031 166.742188 84.757812 167.214844 L 84.757812 147.953125 C 84.757812 139.078125 86.742188 130.867188 90.425781 124.070312 Z M 84.757812 170.238281 C 86.082031 170.613281 88.347656 171.085938 92.410156 171.558594 L 92.410156 255.207031 C 88.347656 255.679688 86.082031 256.058594 84.757812 256.53125 Z M 85.421875 258.039062 C 86.648438 257.664062 89.007812 257.285156 92.410156 256.90625 L 92.410156 259.078125 C 89.007812 258.796875 86.648438 258.417969 85.421875 258.039062 Z M 94.109375 259.269531 L 94.109375 256.71875 C 96.1875 256.53125 98.640625 256.339844 101.378906 256.152344 L 101.378906 259.929688 C 98.640625 259.644531 96.1875 259.457031 94.109375 259.269531 Z M 103.078125 260.023438 L 103.078125 256.058594 C 106.480469 255.867188 110.257812 255.585938 114.503906 255.398438 L 114.503906 260.589844 C 110.351562 260.402344 106.480469 260.210938 103.078125 260.023438 Z M 116.207031 260.683594 L 116.207031 255.300781 C 120.359375 255.113281 124.894531 254.925781 129.710938 254.832031 L 129.710938 261.25 C 124.894531 261.0625 120.359375 260.871094 116.207031 260.683594 Z M 131.410156 261.25 L 131.410156 254.734375 C 136.792969 254.546875 142.457031 254.453125 148.5 254.359375 L 148.5 261.628906 C 142.457031 261.535156 136.792969 261.4375 131.410156 261.25 Z M 150.296875 261.722656 L 150.296875 254.359375 C 156.339844 254.265625 162.667969 254.167969 169.277344 254.167969 L 169.277344 261.910156 C 162.667969 261.816406 156.339844 261.816406 150.296875 261.722656 Z M 181.082031 261.910156 C 177.679688 261.910156 174.28125 261.910156 170.976562 261.910156 L 170.976562 254.074219 C 174.28125 254.074219 177.585938 254.074219 181.082031 254.074219 C 184.480469 254.074219 187.878906 254.074219 191.183594 254.074219 L 191.183594 261.910156 C 187.878906 261.910156 184.480469 261.910156 181.082031 261.910156 Z M 192.882812 261.910156 L 192.882812 254.167969 C 199.496094 254.167969 205.820312 254.265625 211.863281 254.359375 L 211.863281 261.722656 C 205.820312 261.816406 199.496094 261.816406 192.882812 261.910156 Z M 213.566406 261.628906 L 213.566406 254.359375 C 219.609375 254.453125 225.367188 254.640625 230.65625 254.734375 L 230.65625 261.25 C 225.367188 261.4375 219.609375 261.535156 213.566406 261.628906 Z M 232.453125 261.15625 L 232.453125 254.734375 C 237.265625 254.925781 241.800781 255.019531 245.957031 255.207031 L 245.957031 260.589844 C 241.707031 260.871094 237.265625 261.0625 232.453125 261.15625 Z M 247.65625 260.589844 L 247.65625 255.398438 C 251.808594 255.585938 255.683594 255.773438 259.082031 256.058594 L 259.082031 260.023438 C 255.585938 260.210938 251.808594 260.402344 247.65625 260.589844 Z M 260.78125 259.835938 L 260.78125 256.058594 C 263.519531 256.246094 265.976562 256.433594 268.050781 256.625 L 268.050781 259.171875 C 265.878906 259.457031 263.519531 259.644531 260.78125 259.835938 Z M 269.753906 259.078125 L 269.753906 256.90625 C 273.152344 257.285156 275.511719 257.664062 276.738281 258.039062 C 275.511719 258.417969 273.152344 258.796875 269.753906 259.078125 Z M 269.753906 255.207031 L 269.753906 171.558594 C 273.8125 171.085938 276.078125 170.707031 277.402344 170.238281 L 277.402344 256.53125 C 276.078125 256.058594 273.8125 255.585938 269.753906 255.207031 Z M 269.753906 255.207031 " fill-opacity="1" fill-rule="nonzero"/><path fill="rgb(100%, 100%, 100%)" d="M 188.445312 38.246094 C 188.445312 28.332031 185.234375 20.78125 181.082031 20.78125 C 176.832031 20.78125 173.714844 28.238281 173.714844 38.246094 C 173.714844 45.609375 175.507812 51.652344 178.058594 54.296875 C 177.964844 54.484375 177.871094 54.675781 177.871094 54.863281 L 177.871094 61.472656 C 177.871094 61.945312 178.246094 62.324219 178.71875 62.324219 L 183.441406 62.324219 C 183.914062 62.324219 184.292969 61.945312 184.292969 61.472656 L 184.292969 54.863281 C 184.292969 54.675781 184.195312 54.484375 184.101562 54.296875 C 186.652344 51.652344 188.445312 45.707031 188.445312 38.246094 Z M 181.082031 22.574219 C 183.722656 22.574219 186.746094 28.996094 186.746094 38.246094 C 186.746094 47.5 183.722656 53.917969 181.082031 53.917969 C 178.4375 53.917969 175.414062 47.5 175.414062 38.246094 C 175.414062 28.996094 178.4375 22.574219 181.082031 22.574219 Z M 181.082031 22.574219 " fill-opacity="1" fill-rule="nonzero"/><g clip-path="url(#clip-1)"><path fill="rgb(100%, 100%, 100%)" d="M 130.085938 65.625 C 129.710938 65.816406 124.421875 55.148438 117.8125 41.929688 C 111.296875 28.710938 106.007812 18.042969 106.382812 17.757812 C 106.761719 17.570312 112.050781 28.238281 118.660156 41.457031 C 125.175781 54.675781 130.464844 65.4375 130.085938 65.625 Z M 130.085938 65.625 " fill-opacity="1" fill-rule="nonzero"/></g><path fill="rgb(100%, 100%, 100%)" d="M 148.027344 55.617188 C 147.558594 55.714844 145.953125 50.332031 143.875 43.628906 C 141.796875 36.925781 140.191406 31.449219 140.664062 31.355469 C 141.136719 31.261719 142.742188 36.640625 144.820312 43.34375 C 146.800781 50.046875 148.5 55.429688 148.027344 55.617188 Z M 148.027344 55.617188 " fill-opacity="1" fill-rule="nonzero"/><path fill="rgb(100%, 100%, 100%)" d="M 163.609375 50.425781 C 163.136719 50.519531 162.855469 48.539062 162.570312 46.082031 C 162.289062 43.628906 162.003906 41.644531 162.476562 41.644531 C 162.949219 41.550781 163.234375 43.535156 163.515625 45.988281 C 163.800781 48.445312 164.082031 50.425781 163.609375 50.425781 Z M 163.609375 50.425781 " fill-opacity="1" fill-rule="nonzero"/><path fill="rgb(100%, 100%, 100%)" d="M 108.746094 76.863281 C 108.367188 77.144531 99.398438 66.476562 88.347656 53.351562 C 77.300781 40.230469 68.328125 29.5625 68.707031 29.277344 C 69.082031 28.996094 78.054688 39.664062 89.105469 52.785156 C 100.058594 65.910156 109.027344 76.578125 108.746094 76.863281 Z M 108.746094 76.863281 " fill-opacity="1" fill-rule="nonzero"/><path fill="rgb(100%, 100%, 100%)" d="M 93.164062 92.441406 C 92.878906 92.816406 81.078125 83.847656 66.441406 72.800781 C 51.804688 61.753906 40 52.785156 40.28125 52.410156 C 40.566406 52.03125 52.371094 61 67.007812 72.046875 C 81.550781 83.09375 93.449219 92.0625 93.164062 92.441406 Z M 93.164062 92.441406 " fill-opacity="1" fill-rule="nonzero"/><path fill="rgb(100%, 100%, 100%)" d="M 82.117188 106.886719 C 82.019531 107.074219 79 105.941406 74.183594 103.957031 C 69.367188 101.976562 62.757812 99.144531 55.484375 96.121094 C 48.214844 93.007812 41.605469 90.175781 36.789062 88.191406 C 32.066406 86.113281 29.140625 84.792969 29.234375 84.507812 C 29.328125 84.320312 32.351562 85.453125 37.164062 87.4375 C 41.980469 89.417969 48.59375 92.25 55.863281 95.273438 C 63.132812 98.386719 69.746094 101.21875 74.5625 103.203125 C 79.378906 105.28125 82.304688 106.601562 82.117188 106.886719 Z M 82.117188 106.886719 " fill-opacity="1" fill-rule="nonzero"/><path fill="rgb(100%, 100%, 100%)" d="M 72.105469 125.203125 C 72.011719 125.671875 63.890625 123.972656 53.785156 121.800781 C 43.777344 119.726562 35.5625 118.027344 35.65625 117.554688 C 35.75 117.082031 43.871094 118.78125 53.976562 120.953125 C 63.984375 123.03125 72.199219 124.730469 72.105469 125.203125 Z M 72.105469 125.203125 " fill-opacity="1" fill-rule="nonzero"/><g clip-path="url(#clip-2)"><path fill="rgb(100%, 100%, 100%)" d="M 70.59375 148.898438 C 70.59375 149.371094 57.65625 149.65625 41.605469 150.03125 C 25.550781 150.410156 12.613281 150.691406 12.613281 150.222656 C 12.613281 149.75 25.550781 149.464844 41.605469 149.085938 C 57.5625 148.804688 70.59375 148.519531 70.59375 148.898438 Z M 70.59375 148.898438 " fill-opacity="1" fill-rule="nonzero"/></g><g clip-path="url(#clip-3)"><path fill="rgb(100%, 100%, 100%)" d="M 232.640625 65.625 C 232.261719 65.4375 237.550781 54.675781 244.066406 41.457031 C 250.582031 28.238281 255.871094 17.570312 256.34375 17.757812 C 256.71875 17.949219 251.433594 28.710938 244.917969 41.929688 C 238.402344 55.148438 233.113281 65.816406 232.640625 65.625 Z M 232.640625 65.625 " fill-opacity="1" fill-rule="nonzero"/></g><path fill="rgb(100%, 100%, 100%)" d="M 214.699219 55.617188 C 214.226562 55.523438 215.925781 50.046875 217.910156 43.34375 C 219.890625 36.640625 221.589844 31.164062 222.0625 31.355469 C 222.535156 31.449219 220.835938 36.925781 218.851562 43.628906 C 216.777344 50.332031 215.171875 55.714844 214.699219 55.617188 Z M 214.699219 55.617188 " fill-opacity="1" fill-rule="nonzero"/><path fill="rgb(100%, 100%, 100%)" d="M 199.117188 50.425781 C 198.644531 50.332031 198.929688 48.445312 199.210938 45.988281 C 199.496094 43.535156 199.777344 41.550781 200.25 41.644531 C 200.722656 41.742188 200.4375 43.628906 200.15625 46.082031 C 199.871094 48.539062 199.589844 50.519531 199.117188 50.425781 Z M 199.117188 50.425781 " fill-opacity="1" fill-rule="nonzero"/><path fill="rgb(100%, 100%, 100%)" d="M 253.980469 76.863281 C 253.605469 76.578125 262.574219 65.910156 273.625 52.785156 C 284.671875 39.664062 293.644531 28.996094 294.019531 29.277344 C 294.398438 29.5625 285.425781 40.230469 274.378906 53.351562 C 263.332031 66.570312 254.359375 77.238281 253.980469 76.863281 Z M 253.980469 76.863281 " fill-opacity="1" fill-rule="nonzero"/><path fill="rgb(100%, 100%, 100%)" d="M 269.5625 92.441406 C 269.28125 92.0625 281.082031 83.09375 295.722656 72.046875 C 310.359375 61 322.160156 52.03125 322.445312 52.410156 C 322.726562 52.785156 310.925781 61.753906 296.289062 72.800781 C 281.746094 83.847656 269.847656 92.816406 269.5625 92.441406 Z M 269.5625 92.441406 " fill-opacity="1" fill-rule="nonzero"/><path fill="rgb(100%, 100%, 100%)" d="M 280.515625 106.886719 C 280.421875 106.695312 283.351562 105.28125 288.070312 103.203125 C 292.886719 101.125 299.5 98.386719 306.769531 95.273438 C 314.039062 92.25 320.652344 89.417969 325.46875 87.4375 C 330.28125 85.453125 333.304688 84.320312 333.398438 84.507812 C 333.492188 84.699219 330.566406 86.113281 325.84375 88.191406 C 321.027344 90.269531 314.511719 93.007812 307.148438 96.121094 C 299.875 99.144531 293.265625 101.976562 288.449219 103.957031 C 283.632812 105.941406 280.707031 107.074219 280.515625 106.886719 Z M 280.515625 106.886719 " fill-opacity="1" fill-rule="nonzero"/><path fill="rgb(100%, 100%, 100%)" d="M 290.621094 125.203125 C 290.527344 124.730469 298.648438 123.03125 308.753906 120.953125 C 318.761719 118.875 326.976562 117.175781 327.070312 117.554688 C 327.167969 118.027344 319.046875 119.726562 308.941406 121.800781 C 298.929688 123.878906 290.714844 125.578125 290.621094 125.203125 Z M 290.621094 125.203125 " fill-opacity="1" fill-rule="nonzero"/><g clip-path="url(#clip-4)"><path fill="rgb(100%, 100%, 100%)" d="M 292.132812 148.898438 C 292.132812 148.425781 305.164062 148.710938 321.121094 149.085938 C 337.175781 149.464844 350.113281 149.75 350.113281 150.222656 C 350.113281 150.691406 337.082031 150.410156 321.121094 150.03125 C 305.164062 149.65625 292.132812 149.371094 292.132812 148.898438 Z M 292.132812 148.898438 " fill-opacity="1" fill-rule="nonzero"/></g><path fill="rgb(100%, 100%, 100%)" d="M 278.25 330.171875 C 278.25 333.949219 234.71875 337.0625 181.082031 337.0625 C 127.441406 337.0625 83.910156 333.949219 83.910156 330.171875 C 83.910156 326.394531 127.441406 323.28125 181.082031 323.28125 C 234.71875 323.375 278.25 326.394531 278.25 330.171875 Z M 278.25 330.171875 " fill-opacity="1" fill-rule="nonzero"/><g clip-path="url(#clip-5)"><path fill="rgb(100%, 33.329773%, 33.329773%)" d="M 190.402344 316.496094 C 195.160156 326.78125 182.105469 323.410156 180.105469 324.609375 C 176.75 326.621094 189.371094 325.542969 191.433594 326.167969 C 199.023438 328.46875 210.082031 332.089844 209.109375 329.289062 C 208.773438 328.316406 197.457031 326.917969 197.269531 325.542969 C 196.882812 322.730469 215.695312 326.441406 214.257812 323.828125 C 212.023438 319.765625 199.835938 325.695312 196.753906 322.890625 C 196.054688 322.257812 203.78125 321.792969 202.933594 321.019531 C 200.433594 318.746094 196.195312 322.695312 194.695312 320.863281 C 194.238281 320.304688 192.457031 310.894531 190.402344 316.496094 Z M 190.402344 316.496094 " fill-opacity="1" fill-rule="nonzero"/></g><g clip-path="url(#clip-6)"><path fill="rgb(59.999084%, 59.999084%, 59.999084%)" d="M 169.285156 309.351562 C 182.234375 320.011719 186.800781 321.914062 189.085938 320.011719 C 191.371094 318.109375 198.609375 316.964844 198.609375 316.964844 C 198.609375 316.964844 200.890625 310.496094 197.847656 308.589844 C 194.800781 306.6875 170.429688 308.589844 169.285156 309.351562 Z M 169.285156 309.351562 " fill-opacity="1" fill-rule="nonzero"/></g><g clip-path="url(#clip-7)"><path fill="rgb(92.549133%, 92.549133%, 92.549133%)" d="M 154.082031 312.316406 C 163.984375 321.640625 167.792969 323.480469 171.027344 322.972656 C 174.417969 322.441406 180.546875 319.929688 180.546875 319.929688 C 180.546875 319.929688 182.832031 313.457031 179.785156 311.554688 C 176.738281 309.648438 156.558594 310.601562 154.082031 312.316406 Z M 154.082031 312.316406 " fill-opacity="1" fill-rule="nonzero"/></g><path fill="rgb(100%, 50.19989%, 50.19989%)" d="M 169.886719 322.59375 C 175.164062 335.136719 160.679688 331.027344 158.460938 332.488281 C 154.734375 334.945312 168.742188 333.632812 171.027344 334.394531 C 179.445312 337.199219 191.714844 341.613281 190.636719 338.199219 C 190.265625 337.011719 177.710938 335.308594 177.5 333.632812 C 177.070312 330.195312 197.945312 334.726562 196.351562 331.539062 C 193.871094 326.582031 180.347656 333.816406 176.929688 330.394531 C 176.15625 329.621094 184.726562 329.054688 183.785156 328.113281 C 181.011719 325.339844 176.308594 330.15625 174.644531 327.921875 C 174.136719 327.242188 172.164062 315.761719 169.886719 322.59375 Z M 169.886719 322.59375 " fill-opacity="1" fill-rule="nonzero"/></svg>